<svg width="295" height="295" viewBox="0 0 295 295" fill="none" xmlns="http://www.w3.org/2000/svg">
<g clip-path="url(#clip0_64_815)">
<rect width="295" height="295" rx="5" fill="#5200D9" fill-opacity="0.1"/>
<path d="M69.3388 231V219.364H73.2706C74.1835 219.364 74.9297 219.528 75.5092 219.858C76.0926 220.184 76.5244 220.625 76.8047 221.182C77.085 221.739 77.2251 222.36 77.2251 223.045C77.2251 223.731 77.085 224.354 76.8047 224.915C76.5282 225.475 76.1001 225.922 75.5206 226.256C74.9411 226.585 74.1986 226.75 73.2933 226.75H70.4751V225.5H73.2479C73.8729 225.5 74.3748 225.392 74.7536 225.176C75.1323 224.96 75.407 224.669 75.5774 224.301C75.7517 223.93 75.8388 223.511 75.8388 223.045C75.8388 222.58 75.7517 222.163 75.5774 221.795C75.407 221.428 75.1304 221.14 74.7479 220.932C74.3653 220.72 73.8577 220.614 73.2251 220.614H70.7479V231H69.3388ZM81.8814 231.205C81.3284 231.205 80.8265 231.1 80.3757 230.892C79.925 230.68 79.567 230.375 79.3018 229.977C79.0367 229.576 78.9041 229.091 78.9041 228.523C78.9041 228.023 79.0026 227.617 79.1996 227.307C79.3965 226.992 79.6598 226.746 79.9893 226.568C80.3189 226.39 80.6825 226.258 81.0803 226.17C81.4818 226.08 81.8852 226.008 82.2905 225.955C82.8208 225.886 83.2507 225.835 83.5803 225.801C83.9136 225.763 84.156 225.701 84.3075 225.614C84.4628 225.527 84.5405 225.375 84.5405 225.159V225.114C84.5405 224.553 84.3871 224.117 84.0803 223.807C83.7772 223.496 83.317 223.341 82.6996 223.341C82.0594 223.341 81.5575 223.481 81.1939 223.761C80.8303 224.042 80.5746 224.341 80.4268 224.659L79.1541 224.205C79.3814 223.674 79.6844 223.261 80.0632 222.966C80.4458 222.667 80.8625 222.458 81.3132 222.341C81.7678 222.22 82.2147 222.159 82.6541 222.159C82.9344 222.159 83.2564 222.193 83.62 222.261C83.9875 222.326 84.3416 222.46 84.6825 222.665C85.0272 222.869 85.3132 223.178 85.5405 223.591C85.7678 224.004 85.8814 224.557 85.8814 225.25V231H84.5405V229.818H84.4723C84.3814 230.008 84.2299 230.21 84.0178 230.426C83.8056 230.642 83.5234 230.826 83.1712 230.977C82.8189 231.129 82.389 231.205 81.8814 231.205ZM82.0859 230C82.6162 230 83.0632 229.896 83.4268 229.688C83.7943 229.479 84.0708 229.21 84.2564 228.881C84.4458 228.551 84.5405 228.205 84.5405 227.841V226.614C84.4837 226.682 84.3587 226.744 84.1655 226.801C83.9761 226.854 83.7564 226.902 83.5064 226.943C83.2602 226.981 83.0196 227.015 82.7848 227.045C82.5537 227.072 82.3662 227.095 82.2223 227.114C81.8738 227.159 81.5481 227.233 81.245 227.335C80.9458 227.434 80.7034 227.583 80.5178 227.784C80.3359 227.981 80.245 228.25 80.245 228.591C80.245 229.057 80.4174 229.409 80.7621 229.648C81.1106 229.883 81.5518 230 82.0859 230ZM91.8743 231.182C91.0561 231.182 90.3516 230.989 89.7607 230.602C89.1697 230.216 88.7152 229.684 88.397 229.006C88.0788 228.328 87.9197 227.553 87.9197 226.682C87.9197 225.795 88.0826 225.013 88.4084 224.335C88.7379 223.653 89.1963 223.121 89.7834 222.739C90.3743 222.352 91.0637 222.159 91.8516 222.159C92.4652 222.159 93.0182 222.273 93.5107 222.5C94.0031 222.727 94.4065 223.045 94.7209 223.455C95.0353 223.864 95.2304 224.341 95.3061 224.886H93.9652C93.8629 224.489 93.6357 224.136 93.2834 223.83C92.9349 223.519 92.4652 223.364 91.8743 223.364C91.3516 223.364 90.8932 223.5 90.4993 223.773C90.1091 224.042 89.8042 224.422 89.5845 224.915C89.3686 225.403 89.2607 225.977 89.2607 226.636C89.2607 227.311 89.3667 227.898 89.5788 228.398C89.7947 228.898 90.0978 229.286 90.4879 229.562C90.8819 229.839 91.344 229.977 91.8743 229.977C92.2228 229.977 92.5391 229.917 92.8232 229.795C93.1072 229.674 93.3478 229.5 93.5447 229.273C93.7417 229.045 93.8819 228.773 93.9652 228.455H95.3061C95.2304 228.97 95.0429 229.434 94.7436 229.847C94.4482 230.256 94.0561 230.581 93.5675 230.824C93.0826 231.062 92.5182 231.182 91.8743 231.182ZM100.812 231.182C99.9936 231.182 99.2891 230.989 98.6982 230.602C98.1072 230.216 97.6527 229.684 97.3345 229.006C97.0163 228.328 96.8572 227.553 96.8572 226.682C96.8572 225.795 97.0201 225.013 97.3459 224.335C97.6754 223.653 98.1338 223.121 98.7209 222.739C99.3118 222.352 100.001 222.159 100.789 222.159C101.403 222.159 101.956 222.273 102.448 222.5C102.941 222.727 103.344 223.045 103.658 223.455C103.973 223.864 104.168 224.341 104.244 224.886H102.903C102.8 224.489 102.573 224.136 102.221 223.83C101.872 223.519 101.403 223.364 100.812 223.364C100.289 223.364 99.8307 223.5 99.4368 223.773C99.0466 224.042 98.7417 224.422 98.522 224.915C98.3061 225.403 98.1982 225.977 98.1982 226.636C98.1982 227.311 98.3042 227.898 98.5163 228.398C98.7322 228.898 99.0353 229.286 99.4254 229.562C99.8194 229.839 100.281 229.977 100.812 229.977C101.16 229.977 101.477 229.917 101.761 229.795C102.045 229.674 102.285 229.5 102.482 229.273C102.679 229.045 102.819 228.773 102.903 228.455H104.244C104.168 228.97 103.98 229.434 103.681 229.847C103.386 230.256 102.994 230.581 102.505 230.824C102.02 231.062 101.456 231.182 100.812 231.182ZM112.931 222.273V231H111.59V222.273H112.931ZM112.408 226.432V227.682C112.105 227.795 111.804 227.896 111.505 227.983C111.206 228.066 110.891 228.133 110.562 228.182C110.232 228.227 109.871 228.25 109.477 228.25C108.488 228.25 107.694 227.983 107.096 227.449C106.501 226.915 106.204 226.114 106.204 225.045V222.25H107.545V225.045C107.545 225.492 107.63 225.86 107.8 226.148C107.971 226.436 108.202 226.65 108.494 226.79C108.785 226.93 109.113 227 109.477 227C110.045 227 110.558 226.949 111.016 226.847C111.478 226.741 111.942 226.602 112.408 226.432ZM116.732 229.023L120.937 222.273H122.482V231H121.141V224.25L116.96 231H115.391V222.273H116.732V229.023ZM123.751 223.523V222.273H130.842V223.523H127.978V231H126.637V223.523H123.751ZM134.913 231.205C134.36 231.205 133.858 231.1 133.407 230.892C132.956 230.68 132.598 230.375 132.333 229.977C132.068 229.576 131.935 229.091 131.935 228.523C131.935 228.023 132.034 227.617 132.231 227.307C132.428 226.992 132.691 226.746 133.021 226.568C133.35 226.39 133.714 226.258 134.112 226.17C134.513 226.08 134.916 226.008 135.322 225.955C135.852 225.886 136.282 225.835 136.612 225.801C136.945 225.763 137.187 225.701 137.339 225.614C137.494 225.527 137.572 225.375 137.572 225.159V225.114C137.572 224.553 137.418 224.117 137.112 223.807C136.808 223.496 136.348 223.341 135.731 223.341C135.091 223.341 134.589 223.481 134.225 223.761C133.862 224.042 133.606 224.341 133.458 224.659L132.185 224.205C132.413 223.674 132.716 223.261 133.094 222.966C133.477 222.667 133.894 222.458 134.344 222.341C134.799 222.22 135.246 222.159 135.685 222.159C135.966 222.159 136.288 222.193 136.651 222.261C137.019 222.326 137.373 222.46 137.714 222.665C138.058 222.869 138.344 223.178 138.572 223.591C138.799 224.004 138.913 224.557 138.913 225.25V231H137.572V229.818H137.504C137.413 230.008 137.261 230.21 137.049 230.426C136.837 230.642 136.555 230.826 136.202 230.977C135.85 231.129 135.42 231.205 134.913 231.205ZM135.117 230C135.647 230 136.094 229.896 136.458 229.688C136.826 229.479 137.102 229.21 137.288 228.881C137.477 228.551 137.572 228.205 137.572 227.841V226.614C137.515 226.682 137.39 226.744 137.197 226.801C137.007 226.854 136.788 226.902 136.538 226.943C136.291 226.981 136.051 227.015 135.816 227.045C135.585 227.072 135.397 227.095 135.254 227.114C134.905 227.159 134.579 227.233 134.276 227.335C133.977 227.434 133.735 227.583 133.549 227.784C133.367 227.981 133.276 228.25 133.276 228.591C133.276 229.057 133.449 229.409 133.793 229.648C134.142 229.883 134.583 230 135.117 230ZM142.701 229.023L146.906 222.273H148.451V231H147.11V224.25L142.928 231H141.36V222.273H142.701V229.023ZM146.019 219.364H147.269C147.269 219.977 147.057 220.479 146.633 220.869C146.209 221.259 145.633 221.455 144.906 221.455C144.19 221.455 143.62 221.259 143.195 220.869C142.775 220.479 142.565 219.977 142.565 219.364H143.815C143.815 219.659 143.896 219.919 144.059 220.142C144.226 220.366 144.508 220.477 144.906 220.477C145.303 220.477 145.587 220.366 145.758 220.142C145.932 219.919 146.019 219.659 146.019 219.364ZM149.719 223.523V222.273H156.81V223.523H153.947V231H152.606V223.523H149.719ZM161.972 231.182C161.131 231.182 160.406 230.996 159.796 230.625C159.19 230.25 158.722 229.727 158.393 229.057C158.067 228.383 157.904 227.598 157.904 226.705C157.904 225.811 158.067 225.023 158.393 224.341C158.722 223.655 159.181 223.121 159.768 222.739C160.359 222.352 161.048 222.159 161.836 222.159C162.29 222.159 162.739 222.235 163.183 222.386C163.626 222.538 164.029 222.784 164.393 223.125C164.756 223.462 165.046 223.909 165.262 224.466C165.478 225.023 165.586 225.708 165.586 226.523V227.091H158.859V225.932H164.222C164.222 225.439 164.124 225 163.927 224.614C163.734 224.227 163.457 223.922 163.097 223.699C162.741 223.475 162.321 223.364 161.836 223.364C161.302 223.364 160.84 223.496 160.45 223.761C160.063 224.023 159.766 224.364 159.558 224.784C159.349 225.205 159.245 225.655 159.245 226.136V226.909C159.245 227.568 159.359 228.127 159.586 228.585C159.817 229.04 160.137 229.386 160.546 229.625C160.955 229.86 161.431 229.977 161.972 229.977C162.325 229.977 162.643 229.928 162.927 229.83C163.215 229.727 163.463 229.576 163.671 229.375C163.879 229.17 164.04 228.917 164.154 228.614L165.45 228.977C165.313 229.417 165.084 229.803 164.762 230.136C164.44 230.466 164.042 230.723 163.569 230.909C163.095 231.091 162.563 231.182 161.972 231.182ZM175.671 231.182C174.883 231.182 174.192 230.994 173.597 230.619C173.006 230.244 172.544 229.72 172.211 229.045C171.881 228.371 171.717 227.583 171.717 226.682C171.717 225.773 171.881 224.979 172.211 224.301C172.544 223.623 173.006 223.097 173.597 222.722C174.192 222.347 174.883 222.159 175.671 222.159C176.459 222.159 177.148 222.347 177.739 222.722C178.334 223.097 178.796 223.623 179.126 224.301C179.459 224.979 179.626 225.773 179.626 226.682C179.626 227.583 179.459 228.371 179.126 229.045C178.796 229.72 178.334 230.244 177.739 230.619C177.148 230.994 176.459 231.182 175.671 231.182ZM175.671 229.977C176.27 229.977 176.762 229.824 177.148 229.517C177.535 229.21 177.821 228.807 178.006 228.307C178.192 227.807 178.285 227.265 178.285 226.682C178.285 226.098 178.192 225.555 178.006 225.051C177.821 224.547 177.535 224.14 177.148 223.83C176.762 223.519 176.27 223.364 175.671 223.364C175.073 223.364 174.58 223.519 174.194 223.83C173.808 224.14 173.522 224.547 173.336 225.051C173.15 225.555 173.058 226.098 173.058 226.682C173.058 227.265 173.15 227.807 173.336 228.307C173.522 228.807 173.808 229.21 174.194 229.517C174.58 229.824 175.073 229.977 175.671 229.977ZM187.513 226.023V227.273H182.695V226.023H187.513ZM183.013 222.273V231H181.673V222.273H183.013ZM188.536 222.273V231H187.195V222.273H188.536ZM190.212 231V229.75H190.531C190.792 229.75 191.01 229.699 191.184 229.597C191.358 229.491 191.498 229.307 191.604 229.045C191.714 228.78 191.798 228.413 191.854 227.943C191.915 227.47 191.959 226.867 191.985 226.136L192.144 222.273H197.962V231H196.621V223.523H193.417L193.281 226.636C193.25 227.352 193.186 227.983 193.087 228.528C192.993 229.07 192.847 229.525 192.65 229.892C192.457 230.259 192.199 230.536 191.877 230.722C191.555 230.907 191.152 231 190.667 231H190.212ZM202.991 231.205C202.438 231.205 201.936 231.1 201.485 230.892C201.034 230.68 200.676 230.375 200.411 229.977C200.146 229.576 200.013 229.091 200.013 228.523C200.013 228.023 200.112 227.617 200.309 227.307C200.506 226.992 200.769 226.746 201.099 226.568C201.428 226.39 201.792 226.258 202.19 226.17C202.591 226.08 202.995 226.008 203.4 225.955C203.93 225.886 204.36 225.835 204.69 225.801C205.023 225.763 205.265 225.701 205.417 225.614C205.572 225.527 205.65 225.375 205.65 225.159V225.114C205.65 224.553 205.496 224.117 205.19 223.807C204.887 223.496 204.426 223.341 203.809 223.341C203.169 223.341 202.667 223.481 202.303 223.761C201.94 224.042 201.684 224.341 201.536 224.659L200.263 224.205C200.491 223.674 200.794 223.261 201.173 222.966C201.555 222.667 201.972 222.458 202.423 222.341C202.877 222.22 203.324 222.159 203.763 222.159C204.044 222.159 204.366 222.193 204.729 222.261C205.097 222.326 205.451 222.46 205.792 222.665C206.137 222.869 206.423 223.178 206.65 223.591C206.877 224.004 206.991 224.557 206.991 225.25V231H205.65V229.818H205.582C205.491 230.008 205.339 230.21 205.127 230.426C204.915 230.642 204.633 230.826 204.281 230.977C203.928 231.129 203.498 231.205 202.991 231.205ZM203.195 230C203.726 230 204.173 229.896 204.536 229.688C204.904 229.479 205.18 229.21 205.366 228.881C205.555 228.551 205.65 228.205 205.65 227.841V226.614C205.593 226.682 205.468 226.744 205.275 226.801C205.085 226.854 204.866 226.902 204.616 226.943C204.37 226.981 204.129 227.015 203.894 227.045C203.663 227.072 203.476 227.095 203.332 227.114C202.983 227.159 202.657 227.233 202.354 227.335C202.055 227.434 201.813 227.583 201.627 227.784C201.445 227.981 201.354 228.25 201.354 228.591C201.354 229.057 201.527 229.409 201.871 229.648C202.22 229.883 202.661 230 203.195 230ZM210.779 229.023L214.984 222.273H216.529V231H215.188V224.25L211.006 231H209.438V222.273H210.779V229.023ZM214.097 219.364H215.347C215.347 219.977 215.135 220.479 214.711 220.869C214.287 221.259 213.711 221.455 212.984 221.455C212.268 221.455 211.698 221.259 211.273 220.869C210.853 220.479 210.643 219.977 210.643 219.364H211.893C211.893 219.659 211.974 219.919 212.137 220.142C212.304 220.366 212.586 220.477 212.984 220.477C213.381 220.477 213.665 220.366 213.836 220.142C214.01 219.919 214.097 219.659 214.097 219.364ZM224.826 226.023V227.273H220.008V226.023H224.826ZM220.326 222.273V231H218.985V222.273H220.326ZM225.849 222.273V231H224.508V222.273H225.849ZM80.304 255.182C79.4858 255.182 78.7813 254.989 78.1903 254.602C77.5994 254.216 77.1449 253.684 76.8267 253.006C76.5085 252.328 76.3494 251.553 76.3494 250.682C76.3494 249.795 76.5123 249.013 76.8381 248.335C77.1676 247.653 77.6259 247.121 78.2131 246.739C78.804 246.352 79.4934 246.159 80.2812 246.159C80.8949 246.159 81.4479 246.273 81.9403 246.5C82.4328 246.727 82.8362 247.045 83.1506 247.455C83.465 247.864 83.66 248.341 83.7358 248.886H82.3949C82.2926 248.489 82.0653 248.136 81.7131 247.83C81.3646 247.519 80.8949 247.364 80.304 247.364C79.7813 247.364 79.3229 247.5 78.929 247.773C78.5388 248.042 78.2339 248.422 78.0142 248.915C77.7983 249.403 77.6903 249.977 77.6903 250.636C77.6903 251.311 77.7964 251.898 78.0085 252.398C78.2244 252.898 78.5275 253.286 78.9176 253.562C79.3116 253.839 79.7737 253.977 80.304 253.977C80.6525 253.977 80.9688 253.917 81.2528 253.795C81.5369 253.674 81.7775 253.5 81.9744 253.273C82.1714 253.045 82.3116 252.773 82.3949 252.455H83.7358C83.66 252.97 83.4725 253.434 83.1733 253.847C82.8778 254.256 82.4858 254.581 81.9972 254.824C81.5123 255.062 80.9479 255.182 80.304 255.182ZM85.0085 247.523V246.273H92.0994V247.523H89.2358V255H87.8949V247.523H85.0085ZM97.1477 255.182C96.3598 255.182 95.6686 254.994 95.0739 254.619C94.483 254.244 94.0208 253.72 93.6875 253.045C93.358 252.371 93.1932 251.583 93.1932 250.682C93.1932 249.773 93.358 248.979 93.6875 248.301C94.0208 247.623 94.483 247.097 95.0739 246.722C95.6686 246.347 96.3598 246.159 97.1477 246.159C97.9356 246.159 98.625 246.347 99.2159 246.722C99.8106 247.097 100.273 247.623 100.602 248.301C100.936 248.979 101.102 249.773 101.102 250.682C101.102 251.583 100.936 252.371 100.602 253.045C100.273 253.72 99.8106 254.244 99.2159 254.619C98.625 254.994 97.9356 255.182 97.1477 255.182ZM97.1477 253.977C97.7462 253.977 98.2386 253.824 98.625 253.517C99.0114 253.21 99.2973 252.807 99.483 252.307C99.6686 251.807 99.7614 251.265 99.7614 250.682C99.7614 250.098 99.6686 249.555 99.483 249.051C99.2973 248.547 99.0114 248.14 98.625 247.83C98.2386 247.519 97.7462 247.364 97.1477 247.364C96.5492 247.364 96.0568 247.519 95.6705 247.83C95.2841 248.14 94.9981 248.547 94.8125 249.051C94.6269 249.555 94.5341 250.098 94.5341 250.682C94.5341 251.265 94.6269 251.807 94.8125 252.307C94.9981 252.807 95.2841 253.21 95.6705 253.517C96.0568 253.824 96.5492 253.977 97.1477 253.977ZM104.49 253.023L108.695 246.273H110.24V255H108.899V248.25L104.717 255H103.149V246.273H104.49V253.023ZM117.469 253.182L120.514 246.273H121.787L118.014 255H116.923L113.219 246.273H114.469L117.469 253.182ZM114.037 246.273V255H112.696V246.273H114.037ZM120.901 255V246.273H122.241V255H120.901ZM128.241 255.182C127.454 255.182 126.762 254.994 126.168 254.619C125.577 254.244 125.115 253.72 124.781 253.045C124.452 252.371 124.287 251.583 124.287 250.682C124.287 249.773 124.452 248.979 124.781 248.301C125.115 247.623 125.577 247.097 126.168 246.722C126.762 246.347 127.454 246.159 128.241 246.159C129.029 246.159 129.719 246.347 130.31 246.722C130.904 247.097 131.366 247.623 131.696 248.301C132.029 248.979 132.196 249.773 132.196 250.682C132.196 251.583 132.029 252.371 131.696 253.045C131.366 253.72 130.904 254.244 130.31 254.619C129.719 254.994 129.029 255.182 128.241 255.182ZM128.241 253.977C128.84 253.977 129.332 253.824 129.719 253.517C130.105 253.21 130.391 252.807 130.577 252.307C130.762 251.807 130.855 251.265 130.855 250.682C130.855 250.098 130.762 249.555 130.577 249.051C130.391 248.547 130.105 248.14 129.719 247.83C129.332 247.519 128.84 247.364 128.241 247.364C127.643 247.364 127.151 247.519 126.764 247.83C126.378 248.14 126.092 248.547 125.906 249.051C125.721 249.555 125.628 250.098 125.628 250.682C125.628 251.265 125.721 251.807 125.906 252.307C126.092 252.807 126.378 253.21 126.764 253.517C127.151 253.824 127.643 253.977 128.241 253.977ZM137.788 255.182C136.97 255.182 136.266 254.989 135.675 254.602C135.084 254.216 134.629 253.684 134.311 253.006C133.993 252.328 133.834 251.553 133.834 250.682C133.834 249.795 133.997 249.013 134.322 248.335C134.652 247.653 135.11 247.121 135.697 246.739C136.288 246.352 136.978 246.159 137.766 246.159C138.379 246.159 138.932 246.273 139.425 246.5C139.917 246.727 140.321 247.045 140.635 247.455C140.949 247.864 141.144 248.341 141.22 248.886H139.879C139.777 248.489 139.55 248.136 139.197 247.83C138.849 247.519 138.379 247.364 137.788 247.364C137.266 247.364 136.807 247.5 136.413 247.773C136.023 248.042 135.718 248.422 135.499 248.915C135.283 249.403 135.175 249.977 135.175 250.636C135.175 251.311 135.281 251.898 135.493 252.398C135.709 252.898 136.012 253.286 136.402 253.562C136.796 253.839 137.258 253.977 137.788 253.977C138.137 253.977 138.453 253.917 138.737 253.795C139.021 253.674 139.262 253.5 139.459 253.273C139.656 253.045 139.796 252.773 139.879 252.455H141.22C141.144 252.97 140.957 253.434 140.658 253.847C140.362 254.256 139.97 254.581 139.482 254.824C138.997 255.062 138.432 255.182 137.788 255.182ZM142.493 247.523V246.273H149.584V247.523H146.72V255H145.379V247.523H142.493ZM152.699 249.432H155.199C156.222 249.432 157.004 249.691 157.545 250.21C158.087 250.729 158.358 251.386 158.358 252.182C158.358 252.705 158.237 253.18 157.994 253.608C157.752 254.032 157.396 254.371 156.926 254.625C156.456 254.875 155.881 255 155.199 255H151.54V246.273H152.881V253.75H155.199C155.729 253.75 156.165 253.61 156.506 253.33C156.847 253.049 157.017 252.689 157.017 252.25C157.017 251.788 156.847 251.411 156.506 251.119C156.165 250.828 155.729 250.682 155.199 250.682H152.699V249.432ZM164.899 255V246.273H171.763V255H170.422V247.523H166.24V255H164.899ZM177.757 255.182C176.969 255.182 176.278 254.994 175.683 254.619C175.092 254.244 174.63 253.72 174.297 253.045C173.967 252.371 173.803 251.583 173.803 250.682C173.803 249.773 173.967 248.979 174.297 248.301C174.63 247.623 175.092 247.097 175.683 246.722C176.278 246.347 176.969 246.159 177.757 246.159C178.545 246.159 179.234 246.347 179.825 246.722C180.42 247.097 180.882 247.623 181.212 248.301C181.545 248.979 181.712 249.773 181.712 250.682C181.712 251.583 181.545 252.371 181.212 253.045C180.882 253.72 180.42 254.244 179.825 254.619C179.234 254.994 178.545 255.182 177.757 255.182ZM177.757 253.977C178.356 253.977 178.848 253.824 179.234 253.517C179.621 253.21 179.907 252.807 180.092 252.307C180.278 251.807 180.371 251.265 180.371 250.682C180.371 250.098 180.278 249.555 180.092 249.051C179.907 248.547 179.621 248.14 179.234 247.83C178.848 247.519 178.356 247.364 177.757 247.364C177.159 247.364 176.666 247.519 176.28 247.83C175.893 248.14 175.607 248.547 175.422 249.051C175.236 249.555 175.143 250.098 175.143 250.682C175.143 251.265 175.236 251.807 175.422 252.307C175.607 252.807 175.893 253.21 176.28 253.517C176.666 253.824 177.159 253.977 177.757 253.977ZM182.986 255V253.75H183.304C183.565 253.75 183.783 253.699 183.957 253.597C184.132 253.491 184.272 253.307 184.378 253.045C184.488 252.78 184.571 252.413 184.628 251.943C184.688 251.47 184.732 250.867 184.759 250.136L184.918 246.273H190.736V255H189.395V247.523H186.19L186.054 250.636C186.024 251.352 185.959 251.983 185.861 252.528C185.766 253.07 185.62 253.525 185.423 253.892C185.23 254.259 184.973 254.536 184.651 254.722C184.329 254.907 183.925 255 183.44 255H182.986ZM194.537 253.023L198.741 246.273H200.287V255H198.946V248.25L194.764 255H193.196V246.273H194.537V253.023ZM206.288 255.182C205.47 255.182 204.766 254.989 204.175 254.602C203.584 254.216 203.129 253.684 202.811 253.006C202.493 252.328 202.334 251.553 202.334 250.682C202.334 249.795 202.497 249.013 202.822 248.335C203.152 247.653 203.61 247.121 204.197 246.739C204.788 246.352 205.478 246.159 206.266 246.159C206.879 246.159 207.432 246.273 207.925 246.5C208.417 246.727 208.821 247.045 209.135 247.455C209.449 247.864 209.644 248.341 209.72 248.886H208.379C208.277 248.489 208.05 248.136 207.697 247.83C207.349 247.519 206.879 247.364 206.288 247.364C205.766 247.364 205.307 247.5 204.913 247.773C204.523 248.042 204.218 248.422 203.999 248.915C203.783 249.403 203.675 249.977 203.675 250.636C203.675 251.311 203.781 251.898 203.993 252.398C204.209 252.898 204.512 253.286 204.902 253.562C205.296 253.839 205.758 253.977 206.288 253.977C206.637 253.977 206.953 253.917 207.237 253.795C207.521 253.674 207.762 253.5 207.959 253.273C208.156 253.045 208.296 252.773 208.379 252.455H209.72C209.644 252.97 209.457 253.434 209.158 253.847C208.862 254.256 208.47 254.581 207.982 254.824C207.497 255.062 206.932 255.182 206.288 255.182ZM214.249 255.205C213.696 255.205 213.194 255.1 212.743 254.892C212.292 254.68 211.934 254.375 211.669 253.977C211.404 253.576 211.271 253.091 211.271 252.523C211.271 252.023 211.37 251.617 211.567 251.307C211.764 250.992 212.027 250.746 212.357 250.568C212.686 250.39 213.05 250.258 213.447 250.17C213.849 250.08 214.252 250.008 214.658 249.955C215.188 249.886 215.618 249.835 215.947 249.801C216.281 249.763 216.523 249.701 216.675 249.614C216.83 249.527 216.908 249.375 216.908 249.159V249.114C216.908 248.553 216.754 248.117 216.447 247.807C216.144 247.496 215.684 247.341 215.067 247.341C214.427 247.341 213.925 247.481 213.561 247.761C213.197 248.042 212.942 248.341 212.794 248.659L211.521 248.205C211.749 247.674 212.052 247.261 212.43 246.966C212.813 246.667 213.23 246.458 213.68 246.341C214.135 246.22 214.582 246.159 215.021 246.159C215.302 246.159 215.624 246.193 215.987 246.261C216.355 246.326 216.709 246.46 217.05 246.665C217.394 246.869 217.68 247.178 217.908 247.591C218.135 248.004 218.249 248.557 218.249 249.25V255H216.908V253.818H216.839C216.749 254.008 216.597 254.21 216.385 254.426C216.173 254.642 215.891 254.826 215.538 254.977C215.186 255.129 214.756 255.205 214.249 255.205ZM214.453 254C214.983 254 215.43 253.896 215.794 253.688C216.161 253.479 216.438 253.21 216.624 252.881C216.813 252.551 216.908 252.205 216.908 251.841V250.614C216.851 250.682 216.726 250.744 216.533 250.801C216.343 250.854 216.124 250.902 215.874 250.943C215.627 250.981 215.387 251.015 215.152 251.045C214.921 251.072 214.733 251.095 214.589 251.114C214.241 251.159 213.915 251.233 213.612 251.335C213.313 251.434 213.071 251.583 212.885 251.784C212.703 251.981 212.612 252.25 212.612 252.591C212.612 253.057 212.785 253.409 213.129 253.648C213.478 253.883 213.919 254 214.453 254Z" fill="black"/>
<path opacity="0.1" d="M69.9091 23.9091V117H47.4545V44.9091H46.9091L26.0909 57.6364V38.1818L49.0455 23.9091H69.9091Z" fill="#5200D9"/>
<path d="M183.697 70H112.303C107.446 70 103.494 73.9517 103.494 78.8092V175.191C103.494 180.048 107.446 184 112.303 184H183.697C188.554 184 192.506 180.048 192.506 175.191V78.8092C192.506 73.9517 188.554 70 183.697 70ZM106.834 78.8092C106.834 75.7935 109.287 73.3398 112.303 73.3398H183.697C186.713 73.3398 189.166 75.7935 189.166 78.8092V112.836H106.834V78.8092ZM189.166 175.191C189.166 178.206 186.713 180.66 183.697 180.66H112.303C109.287 180.66 106.834 178.206 106.834 175.191V116.176H189.166V175.191Z" fill="#5200D9"/>
<path d="M167.633 80.709H117.658C115.753 80.709 114.203 82.2589 114.203 84.1639V102.012C114.203 103.917 115.753 105.467 117.658 105.467H121.227C122.15 105.467 122.897 104.72 122.897 103.797C122.897 102.875 122.15 102.127 121.227 102.127H117.658C117.643 102.127 117.628 102.124 117.614 102.118C117.6 102.113 117.587 102.104 117.576 102.094C117.566 102.083 117.557 102.07 117.552 102.056C117.546 102.042 117.543 102.027 117.543 102.012V84.1639C117.543 84.1005 117.594 84.0488 117.658 84.0488H167.633C168.555 84.0488 169.303 83.3014 169.303 82.3789C169.303 81.4564 168.555 80.709 167.633 80.709Z" fill="#5200D9"/>
<path d="M178.342 80.709H174.773C173.85 80.709 173.103 81.4564 173.103 82.3789C173.103 83.3014 173.85 84.0491 174.773 84.0491H178.342C178.405 84.0491 178.457 84.1005 178.457 84.1642V102.013C178.457 102.043 178.445 102.072 178.423 102.094C178.402 102.115 178.373 102.127 178.342 102.127H128.367C127.445 102.127 126.697 102.875 126.697 103.797C126.697 104.72 127.445 105.467 128.367 105.467H178.342C180.248 105.467 181.797 103.918 181.797 102.013V84.1639C181.797 82.2589 180.248 80.709 178.342 80.709ZM139.076 123.545C135.203 123.545 132.052 126.696 132.052 130.57C132.052 134.443 135.203 137.594 139.076 137.594C142.949 137.594 146.1 134.443 146.1 130.57C146.1 126.696 142.949 123.545 139.076 123.545ZM139.076 134.254C137.044 134.254 135.391 132.601 135.391 130.57C135.391 128.538 137.044 126.885 139.076 126.885C141.108 126.885 142.76 128.538 142.76 130.57C142.76 132.601 141.108 134.254 139.076 134.254ZM139.076 141.394C135.203 141.394 132.052 144.545 132.052 148.418C132.052 152.292 135.203 155.443 139.076 155.443C142.949 155.443 146.1 152.292 146.1 148.418C146.1 144.545 142.949 141.394 139.076 141.394ZM139.076 152.103C137.044 152.103 135.391 150.45 135.391 148.418C135.391 146.386 137.044 144.734 139.076 144.734C141.108 144.734 142.76 146.386 142.76 148.418C142.76 150.45 141.108 152.103 139.076 152.103ZM139.076 159.242C135.203 159.242 132.052 162.393 132.052 166.267C132.052 170.14 135.203 173.291 139.076 173.291C142.949 173.291 146.1 170.14 146.1 166.267C146.1 162.393 142.949 159.242 139.076 159.242ZM139.076 169.951C137.044 169.951 135.391 168.298 135.391 166.266C135.391 164.235 137.044 162.582 139.076 162.582C141.108 162.582 142.76 164.235 142.76 166.266C142.76 168.298 141.108 169.951 139.076 169.951ZM156.924 123.545C153.051 123.545 149.9 126.696 149.9 130.57C149.9 134.443 153.051 137.594 156.924 137.594C160.798 137.594 163.949 134.443 163.949 130.57C163.949 126.696 160.798 123.545 156.924 123.545ZM156.924 134.254C154.893 134.254 153.24 132.601 153.24 130.57C153.24 128.538 154.893 126.885 156.924 126.885C158.956 126.885 160.609 128.538 160.609 130.57C160.609 132.601 158.956 134.254 156.924 134.254ZM156.924 141.394C153.051 141.394 149.9 144.545 149.9 148.418C149.9 152.292 153.051 155.443 156.924 155.443C160.798 155.443 163.949 152.292 163.949 148.418C163.949 144.545 160.798 141.394 156.924 141.394ZM156.924 152.103C154.893 152.103 153.24 150.45 153.24 148.418C153.24 146.386 154.893 144.734 156.924 144.734C158.956 144.734 160.609 146.386 160.609 148.418C160.609 150.45 158.956 152.103 156.924 152.103ZM156.924 159.242C153.051 159.242 149.9 162.393 149.9 166.267C149.9 170.14 153.051 173.291 156.924 173.291C160.798 173.291 163.949 170.14 163.949 166.267C163.949 162.393 160.798 159.242 156.924 159.242ZM156.924 169.951C154.893 169.951 153.24 168.298 153.24 166.266C153.24 164.235 154.893 162.582 156.924 162.582C158.956 162.582 160.609 164.235 160.609 166.266C160.609 168.298 158.956 169.951 156.924 169.951ZM121.228 123.545C117.354 123.545 114.203 126.696 114.203 130.57C114.203 134.443 117.354 137.594 121.228 137.594C125.101 137.594 128.252 134.443 128.252 130.57C128.252 126.696 125.101 123.545 121.228 123.545ZM121.228 134.254C119.196 134.254 117.543 132.601 117.543 130.57C117.543 128.538 119.196 126.885 121.228 126.885C123.259 126.885 124.912 128.538 124.912 130.57C124.912 132.601 123.259 134.254 121.228 134.254ZM121.228 141.394C117.354 141.394 114.203 144.545 114.203 148.418C114.203 152.292 117.354 155.443 121.228 155.443C125.101 155.443 128.252 152.292 128.252 148.418C128.252 144.545 125.101 141.394 121.228 141.394ZM121.228 152.103C119.196 152.103 117.543 150.45 117.543 148.418C117.543 146.386 119.196 144.734 121.228 144.734C123.259 144.734 124.912 146.386 124.912 148.418C124.912 150.45 123.259 152.103 121.228 152.103ZM121.228 159.242C117.354 159.242 114.203 162.393 114.203 166.267C114.203 170.14 117.354 173.291 121.228 173.291C125.101 173.291 128.252 170.14 128.252 166.267C128.252 162.393 125.101 159.242 121.228 159.242ZM121.228 169.951C119.196 169.951 117.543 168.298 117.543 166.266C117.543 164.235 119.196 162.582 121.228 162.582C123.259 162.582 124.912 164.235 124.912 166.266C124.912 168.298 123.259 169.951 121.228 169.951ZM174.773 123.545C170.899 123.545 167.748 126.696 167.748 130.57C167.748 134.443 170.899 137.594 174.773 137.594C178.646 137.594 181.797 134.443 181.797 130.57C181.797 126.696 178.646 123.545 174.773 123.545ZM174.773 134.254C172.741 134.254 171.088 132.601 171.088 130.57C171.088 128.538 172.741 126.885 174.773 126.885C176.804 126.885 178.457 128.538 178.457 130.57C178.457 132.601 176.804 134.254 174.773 134.254ZM174.773 141.394C170.899 141.394 167.748 144.545 167.748 148.418V166.267C167.748 170.14 170.899 173.291 174.773 173.291C178.646 173.291 181.797 170.14 181.797 166.267V148.418C181.797 144.545 178.646 141.394 174.773 141.394ZM178.457 166.266C178.457 168.298 176.804 169.951 174.773 169.951C172.741 169.951 171.088 168.298 171.088 166.266V148.418C171.088 146.386 172.741 144.734 174.773 144.734C176.804 144.734 178.457 146.386 178.457 148.418V166.266Z" fill="#5200D9"/>
</g>
<defs>
<clipPath id="clip0_64_815">
<rect width="295" height="295" rx="5" fill="white"/>
</clipPath>
</defs>
</svg>
