<svg width="295" height="295" viewBox="0 0 295 295" fill="none" xmlns="http://www.w3.org/2000/svg">
<g clip-path="url(#clip0_64_881)">
<rect width="295" height="295" rx="5" fill="#5200D9" fill-opacity="0.1"/>
<path d="M55.3089 219.364V231H53.8999V220.614H48.0362V231H46.6271V219.364H55.3089ZM61.5149 231.182C60.727 231.182 60.0357 230.994 59.4411 230.619C58.8501 230.244 58.388 229.72 58.0547 229.045C57.7251 228.371 57.5604 227.583 57.5604 226.682C57.5604 225.773 57.7251 224.979 58.0547 224.301C58.388 223.623 58.8501 223.097 59.4411 222.722C60.0357 222.347 60.727 222.159 61.5149 222.159C62.3028 222.159 62.9922 222.347 63.5831 222.722C64.1778 223.097 64.6399 223.623 64.9695 224.301C65.3028 224.979 65.4695 225.773 65.4695 226.682C65.4695 227.583 65.3028 228.371 64.9695 229.045C64.6399 229.72 64.1778 230.244 63.5831 230.619C62.9922 230.994 62.3028 231.182 61.5149 231.182ZM61.5149 229.977C62.1134 229.977 62.6058 229.824 62.9922 229.517C63.3786 229.21 63.6645 228.807 63.8501 228.307C64.0357 227.807 64.1286 227.265 64.1286 226.682C64.1286 226.098 64.0357 225.555 63.8501 225.051C63.6645 224.547 63.3786 224.14 62.9922 223.83C62.6058 223.519 62.1134 223.364 61.5149 223.364C60.9164 223.364 60.424 223.519 60.0376 223.83C59.6513 224.14 59.3653 224.547 59.1797 225.051C58.9941 225.555 58.9013 226.098 58.9013 226.682C58.9013 227.265 58.9941 227.807 59.1797 228.307C59.3653 228.807 59.6513 229.21 60.0376 229.517C60.424 229.824 60.9164 229.977 61.5149 229.977ZM66.7436 231V229.75H67.0618C67.3232 229.75 67.541 229.699 67.7152 229.597C67.8894 229.491 68.0296 229.307 68.1357 229.045C68.2455 228.78 68.3288 228.413 68.3857 227.943C68.4463 227.47 68.4898 226.867 68.5163 226.136L68.6754 222.273H74.4936V231H73.1527V223.523H69.9482L69.8118 226.636C69.7815 227.352 69.7171 227.983 69.6186 228.528C69.5239 229.07 69.3781 229.525 69.1811 229.892C68.9879 230.259 68.7304 230.536 68.4084 230.722C68.0864 230.907 67.683 231 67.1982 231H66.7436ZM77.505 234.273C77.2777 234.273 77.075 234.254 76.897 234.216C76.719 234.182 76.5959 234.148 76.5277 234.114L76.8686 232.932C77.1944 233.015 77.4822 233.045 77.7322 233.023C77.9822 233 78.2038 232.888 78.397 232.688C78.594 232.491 78.7739 232.17 78.9368 231.727L79.1868 231.045L75.9595 222.273H77.4141L79.8232 229.227H79.9141L82.3232 222.273H83.7777L80.0732 232.273C79.9065 232.723 79.7 233.097 79.4538 233.392C79.2076 233.691 78.9216 233.913 78.5959 234.057C78.2739 234.201 77.9103 234.273 77.505 234.273ZM92.0092 222.273V231H90.6683V222.273H92.0092ZM91.4865 226.432V227.682C91.1835 227.795 90.8823 227.896 90.5831 227.983C90.2839 228.066 89.9695 228.133 89.6399 228.182C89.3104 228.227 88.9486 228.25 88.5547 228.25C87.5661 228.25 86.7725 227.983 86.174 227.449C85.5793 226.915 85.282 226.114 85.282 225.045V222.25H86.6229V225.045C86.6229 225.492 86.7081 225.86 86.8786 226.148C87.049 226.436 87.2801 226.65 87.5717 226.79C87.8634 226.93 88.1911 227 88.5547 227C89.1229 227 89.6361 226.949 90.0945 226.847C90.5566 226.741 91.0206 226.602 91.4865 226.432ZM95.8104 229.023L100.015 222.273H101.56V231H100.219V224.25L96.0376 231H94.4695V222.273H95.8104V229.023ZM102.829 223.523V222.273H109.92V223.523H107.056V231H105.715V223.523H102.829ZM115.082 231.182C114.241 231.182 113.515 230.996 112.906 230.625C112.299 230.25 111.832 229.727 111.502 229.057C111.176 228.383 111.013 227.598 111.013 226.705C111.013 225.811 111.176 225.023 111.502 224.341C111.832 223.655 112.29 223.121 112.877 222.739C113.468 222.352 114.157 222.159 114.945 222.159C115.4 222.159 115.849 222.235 116.292 222.386C116.735 222.538 117.138 222.784 117.502 223.125C117.866 223.462 118.156 223.909 118.371 224.466C118.587 225.023 118.695 225.708 118.695 226.523V227.091H111.968V225.932H117.332C117.332 225.439 117.233 225 117.036 224.614C116.843 224.227 116.567 223.922 116.207 223.699C115.851 223.475 115.43 223.364 114.945 223.364C114.411 223.364 113.949 223.496 113.559 223.761C113.173 224.023 112.875 224.364 112.667 224.784C112.459 225.205 112.354 225.655 112.354 226.136V226.909C112.354 227.568 112.468 228.127 112.695 228.585C112.926 229.04 113.246 229.386 113.656 229.625C114.065 229.86 114.54 229.977 115.082 229.977C115.434 229.977 115.752 229.928 116.036 229.83C116.324 229.727 116.572 229.576 116.781 229.375C116.989 229.17 117.15 228.917 117.263 228.614L118.559 228.977C118.423 229.417 118.193 229.803 117.871 230.136C117.549 230.466 117.152 230.723 116.678 230.909C116.205 231.091 115.673 231.182 115.082 231.182ZM125.235 231V222.273H132.099V231H130.758V223.523H126.576V231H125.235ZM138.093 231.182C137.305 231.182 136.614 230.994 136.019 230.619C135.428 230.244 134.966 229.72 134.633 229.045C134.303 228.371 134.138 227.583 134.138 226.682C134.138 225.773 134.303 224.979 134.633 224.301C134.966 223.623 135.428 223.097 136.019 222.722C136.614 222.347 137.305 222.159 138.093 222.159C138.881 222.159 139.57 222.347 140.161 222.722C140.756 223.097 141.218 223.623 141.548 224.301C141.881 224.979 142.048 225.773 142.048 226.682C142.048 227.583 141.881 228.371 141.548 229.045C141.218 229.72 140.756 230.244 140.161 230.619C139.57 230.994 138.881 231.182 138.093 231.182ZM138.093 229.977C138.692 229.977 139.184 229.824 139.57 229.517C139.957 229.21 140.243 228.807 140.428 228.307C140.614 227.807 140.707 227.265 140.707 226.682C140.707 226.098 140.614 225.555 140.428 225.051C140.243 224.547 139.957 224.14 139.57 223.83C139.184 223.519 138.692 223.364 138.093 223.364C137.495 223.364 137.002 223.519 136.616 223.83C136.229 224.14 135.943 224.547 135.758 225.051C135.572 225.555 135.479 226.098 135.479 226.682C135.479 227.265 135.572 227.807 135.758 228.307C135.943 228.807 136.229 229.21 136.616 229.517C137.002 229.824 137.495 229.977 138.093 229.977ZM143.322 231V229.75H143.64C143.901 229.75 144.119 229.699 144.293 229.597C144.468 229.491 144.608 229.307 144.714 229.045C144.824 228.78 144.907 228.413 144.964 227.943C145.024 227.47 145.068 226.867 145.094 226.136L145.254 222.273H151.072V231H149.731V223.523H146.526L146.39 226.636C146.36 227.352 146.295 227.983 146.197 228.528C146.102 229.07 145.956 229.525 145.759 229.892C145.566 230.259 145.308 230.536 144.987 230.722C144.665 230.907 144.261 231 143.776 231H143.322ZM154.873 229.023L159.077 222.273H160.623V231H159.282V224.25L155.1 231H153.532V222.273H154.873V229.023ZM166.624 231.182C165.806 231.182 165.102 230.989 164.511 230.602C163.92 230.216 163.465 229.684 163.147 229.006C162.829 228.328 162.67 227.553 162.67 226.682C162.67 225.795 162.833 225.013 163.158 224.335C163.488 223.653 163.946 223.121 164.533 222.739C165.124 222.352 165.814 222.159 166.602 222.159C167.215 222.159 167.768 222.273 168.261 222.5C168.753 222.727 169.156 223.045 169.471 223.455C169.785 223.864 169.98 224.341 170.056 224.886H168.715C168.613 224.489 168.386 224.136 168.033 223.83C167.685 223.519 167.215 223.364 166.624 223.364C166.102 223.364 165.643 223.5 165.249 223.773C164.859 224.042 164.554 224.422 164.335 224.915C164.119 225.403 164.011 225.977 164.011 226.636C164.011 227.311 164.117 227.898 164.329 228.398C164.545 228.898 164.848 229.286 165.238 229.562C165.632 229.839 166.094 229.977 166.624 229.977C166.973 229.977 167.289 229.917 167.573 229.795C167.857 229.674 168.098 229.5 168.295 229.273C168.492 229.045 168.632 228.773 168.715 228.455H170.056C169.98 228.97 169.793 229.434 169.494 229.847C169.198 230.256 168.806 230.581 168.317 230.824C167.833 231.062 167.268 231.182 166.624 231.182ZM182.357 226.023V227.273H177.539V226.023H182.357ZM177.857 222.273V231H176.516V222.273H177.857ZM183.38 222.273V231H182.039V222.273H183.38ZM188.397 231.205C187.844 231.205 187.342 231.1 186.891 230.892C186.441 230.68 186.083 230.375 185.817 229.977C185.552 229.576 185.42 229.091 185.42 228.523C185.42 228.023 185.518 227.617 185.715 227.307C185.912 226.992 186.175 226.746 186.505 226.568C186.835 226.39 187.198 226.258 187.596 226.17C187.997 226.08 188.401 226.008 188.806 225.955C189.336 225.886 189.766 225.835 190.096 225.801C190.429 225.763 190.672 225.701 190.823 225.614C190.978 225.527 191.056 225.375 191.056 225.159V225.114C191.056 224.553 190.903 224.117 190.596 223.807C190.293 223.496 189.833 223.341 189.215 223.341C188.575 223.341 188.073 223.481 187.71 223.761C187.346 224.042 187.09 224.341 186.942 224.659L185.67 224.205C185.897 223.674 186.2 223.261 186.579 222.966C186.961 222.667 187.378 222.458 187.829 222.341C188.283 222.22 188.73 222.159 189.17 222.159C189.45 222.159 189.772 222.193 190.136 222.261C190.503 222.326 190.857 222.46 191.198 222.665C191.543 222.869 191.829 223.178 192.056 223.591C192.283 224.004 192.397 224.557 192.397 225.25V231H191.056V229.818H190.988C190.897 230.008 190.746 230.21 190.533 230.426C190.321 230.642 190.039 230.826 189.687 230.977C189.335 231.129 188.905 231.205 188.397 231.205ZM188.602 230C189.132 230 189.579 229.896 189.942 229.688C190.31 229.479 190.586 229.21 190.772 228.881C190.961 228.551 191.056 228.205 191.056 227.841V226.614C190.999 226.682 190.874 226.744 190.681 226.801C190.492 226.854 190.272 226.902 190.022 226.943C189.776 226.981 189.535 227.015 189.3 227.045C189.069 227.072 188.882 227.095 188.738 227.114C188.389 227.159 188.064 227.233 187.761 227.335C187.461 227.434 187.219 227.583 187.033 227.784C186.852 227.981 186.761 228.25 186.761 228.591C186.761 229.057 186.933 229.409 187.278 229.648C187.626 229.883 188.067 230 188.602 230ZM203.004 231.182C202.163 231.182 201.437 230.996 200.827 230.625C200.221 230.25 199.754 229.727 199.424 229.057C199.098 228.383 198.935 227.598 198.935 226.705C198.935 225.811 199.098 225.023 199.424 224.341C199.754 223.655 200.212 223.121 200.799 222.739C201.39 222.352 202.079 222.159 202.867 222.159C203.322 222.159 203.771 222.235 204.214 222.386C204.657 222.538 205.06 222.784 205.424 223.125C205.788 223.462 206.077 223.909 206.293 224.466C206.509 225.023 206.617 225.708 206.617 226.523V227.091H199.89V225.932H205.254C205.254 225.439 205.155 225 204.958 224.614C204.765 224.227 204.488 223.922 204.129 223.699C203.772 223.475 203.352 223.364 202.867 223.364C202.333 223.364 201.871 223.496 201.481 223.761C201.094 224.023 200.797 224.364 200.589 224.784C200.38 225.205 200.276 225.655 200.276 226.136V226.909C200.276 227.568 200.39 228.127 200.617 228.585C200.848 229.04 201.168 229.386 201.577 229.625C201.987 229.86 202.462 229.977 203.004 229.977C203.356 229.977 203.674 229.928 203.958 229.83C204.246 229.727 204.494 229.576 204.702 229.375C204.911 229.17 205.072 228.917 205.185 228.614L206.481 228.977C206.344 229.417 206.115 229.803 205.793 230.136C205.471 230.466 205.074 230.723 204.6 230.909C204.127 231.091 203.594 231.182 203.004 231.182ZM213.657 225.386V226.636H208.566V225.386H213.657ZM216.016 231V222.273H217.312V223.636H217.425C217.607 223.17 217.901 222.809 218.306 222.551C218.711 222.29 219.198 222.159 219.766 222.159C220.342 222.159 220.821 222.29 221.204 222.551C221.59 222.809 221.891 223.17 222.107 223.636H222.198C222.422 223.186 222.757 222.828 223.204 222.562C223.651 222.294 224.187 222.159 224.812 222.159C225.592 222.159 226.23 222.403 226.727 222.892C227.223 223.377 227.471 224.133 227.471 225.159V231H226.13V225.159C226.13 224.515 225.954 224.055 225.602 223.778C225.249 223.502 224.835 223.364 224.357 223.364C223.744 223.364 223.268 223.549 222.931 223.92C222.594 224.288 222.425 224.754 222.425 225.318V231H221.062V225.023C221.062 224.527 220.901 224.127 220.579 223.824C220.257 223.517 219.842 223.364 219.335 223.364C218.986 223.364 218.66 223.456 218.357 223.642C218.058 223.828 217.816 224.085 217.63 224.415C217.448 224.741 217.357 225.117 217.357 225.545V231H216.016ZM232.491 231.205C231.938 231.205 231.436 231.1 230.985 230.892C230.534 230.68 230.176 230.375 229.911 229.977C229.646 229.576 229.513 229.091 229.513 228.523C229.513 228.023 229.612 227.617 229.809 227.307C230.006 226.992 230.269 226.746 230.599 226.568C230.928 226.39 231.292 226.258 231.69 226.17C232.091 226.08 232.495 226.008 232.9 225.955C233.43 225.886 233.86 225.835 234.19 225.801C234.523 225.763 234.765 225.701 234.917 225.614C235.072 225.527 235.15 225.375 235.15 225.159V225.114C235.15 224.553 234.996 224.117 234.69 223.807C234.387 223.496 233.926 223.341 233.309 223.341C232.669 223.341 232.167 223.481 231.803 223.761C231.44 224.042 231.184 224.341 231.036 224.659L229.763 224.205C229.991 223.674 230.294 223.261 230.673 222.966C231.055 222.667 231.472 222.458 231.923 222.341C232.377 222.22 232.824 222.159 233.263 222.159C233.544 222.159 233.866 222.193 234.229 222.261C234.597 222.326 234.951 222.46 235.292 222.665C235.637 222.869 235.923 223.178 236.15 223.591C236.377 224.004 236.491 224.557 236.491 225.25V231H235.15V229.818H235.082C234.991 230.008 234.839 230.21 234.627 230.426C234.415 230.642 234.133 230.826 233.781 230.977C233.428 231.129 232.998 231.205 232.491 231.205ZM232.695 230C233.226 230 233.673 229.896 234.036 229.688C234.404 229.479 234.68 229.21 234.866 228.881C235.055 228.551 235.15 228.205 235.15 227.841V226.614C235.093 226.682 234.968 226.744 234.775 226.801C234.585 226.854 234.366 226.902 234.116 226.943C233.87 226.981 233.629 227.015 233.394 227.045C233.163 227.072 232.976 227.095 232.832 227.114C232.483 227.159 232.157 227.233 231.854 227.335C231.555 227.434 231.313 227.583 231.127 227.784C230.945 227.981 230.854 228.25 230.854 228.591C230.854 229.057 231.027 229.409 231.371 229.648C231.72 229.883 232.161 230 232.695 230ZM238.938 231V222.273H240.279V231H238.938ZM239.62 220.818C239.359 220.818 239.133 220.729 238.944 220.551C238.758 220.373 238.665 220.159 238.665 219.909C238.665 219.659 238.758 219.445 238.944 219.267C239.133 219.089 239.359 219 239.62 219C239.881 219 240.105 219.089 240.29 219.267C240.48 219.445 240.575 219.659 240.575 219.909C240.575 220.159 240.48 220.373 240.29 220.551C240.105 220.729 239.881 220.818 239.62 220.818ZM244.076 219.364V231H242.735V219.364H244.076ZM89.4354 253.023L93.6399 246.273H95.1854V255H93.8445V248.25L89.6626 255H88.0945V246.273H89.4354V253.023ZM102.141 258.273V246.273H103.437V247.659H103.596C103.694 247.508 103.831 247.314 104.005 247.08C104.183 246.841 104.437 246.629 104.766 246.443C105.1 246.254 105.55 246.159 106.119 246.159C106.853 246.159 107.501 246.343 108.062 246.71C108.622 247.078 109.06 247.598 109.374 248.273C109.689 248.947 109.846 249.742 109.846 250.659C109.846 251.583 109.689 252.384 109.374 253.062C109.06 253.737 108.624 254.259 108.067 254.631C107.511 254.998 106.869 255.182 106.141 255.182C105.581 255.182 105.132 255.089 104.795 254.903C104.458 254.714 104.198 254.5 104.016 254.261C103.835 254.019 103.694 253.818 103.596 253.659H103.482V258.273H102.141ZM103.46 250.636C103.46 251.295 103.556 251.877 103.749 252.381C103.942 252.881 104.225 253.273 104.596 253.557C104.967 253.837 105.422 253.977 105.96 253.977C106.52 253.977 106.988 253.83 107.363 253.534C107.742 253.235 108.026 252.833 108.215 252.33C108.408 251.822 108.505 251.258 108.505 250.636C108.505 250.023 108.41 249.47 108.221 248.977C108.035 248.481 107.753 248.089 107.374 247.801C106.999 247.509 106.528 247.364 105.96 247.364C105.414 247.364 104.956 247.502 104.585 247.778C104.213 248.051 103.933 248.434 103.744 248.926C103.554 249.415 103.46 249.985 103.46 250.636ZM114.46 255.205C113.906 255.205 113.405 255.1 112.954 254.892C112.503 254.68 112.145 254.375 111.88 253.977C111.615 253.576 111.482 253.091 111.482 252.523C111.482 252.023 111.581 251.617 111.778 251.307C111.975 250.992 112.238 250.746 112.567 250.568C112.897 250.39 113.261 250.258 113.658 250.17C114.06 250.08 114.463 250.008 114.869 249.955C115.399 249.886 115.829 249.835 116.158 249.801C116.492 249.763 116.734 249.701 116.886 249.614C117.041 249.527 117.119 249.375 117.119 249.159V249.114C117.119 248.553 116.965 248.117 116.658 247.807C116.355 247.496 115.895 247.341 115.278 247.341C114.638 247.341 114.136 247.481 113.772 247.761C113.408 248.042 113.153 248.341 113.005 248.659L111.732 248.205C111.96 247.674 112.263 247.261 112.641 246.966C113.024 246.667 113.441 246.458 113.891 246.341C114.346 246.22 114.793 246.159 115.232 246.159C115.513 246.159 115.835 246.193 116.198 246.261C116.566 246.326 116.92 246.46 117.261 246.665C117.605 246.869 117.891 247.178 118.119 247.591C118.346 248.004 118.46 248.557 118.46 249.25V255H117.119V253.818H117.05C116.96 254.008 116.808 254.21 116.596 254.426C116.384 254.642 116.102 254.826 115.749 254.977C115.397 255.129 114.967 255.205 114.46 255.205ZM114.664 254C115.194 254 115.641 253.896 116.005 253.688C116.372 253.479 116.649 253.21 116.835 252.881C117.024 252.551 117.119 252.205 117.119 251.841V250.614C117.062 250.682 116.937 250.744 116.744 250.801C116.554 250.854 116.335 250.902 116.085 250.943C115.838 250.981 115.598 251.015 115.363 251.045C115.132 251.072 114.944 251.095 114.8 251.114C114.452 251.159 114.126 251.233 113.823 251.335C113.524 251.434 113.281 251.583 113.096 251.784C112.914 251.981 112.823 252.25 112.823 252.591C112.823 253.057 112.996 253.409 113.34 253.648C113.689 253.883 114.13 254 114.664 254ZM124.452 255.182C123.634 255.182 122.93 254.989 122.339 254.602C121.748 254.216 121.293 253.684 120.975 253.006C120.657 252.328 120.498 251.553 120.498 250.682C120.498 249.795 120.661 249.013 120.987 248.335C121.316 247.653 121.774 247.121 122.362 246.739C122.952 246.352 123.642 246.159 124.43 246.159C125.043 246.159 125.596 246.273 126.089 246.5C126.581 246.727 126.985 247.045 127.299 247.455C127.613 247.864 127.808 248.341 127.884 248.886H126.543C126.441 248.489 126.214 248.136 125.862 247.83C125.513 247.519 125.043 247.364 124.452 247.364C123.93 247.364 123.471 247.5 123.077 247.773C122.687 248.042 122.382 248.422 122.163 248.915C121.947 249.403 121.839 249.977 121.839 250.636C121.839 251.311 121.945 251.898 122.157 252.398C122.373 252.898 122.676 253.286 123.066 253.562C123.46 253.839 123.922 253.977 124.452 253.977C124.801 253.977 125.117 253.917 125.401 253.795C125.685 253.674 125.926 253.5 126.123 253.273C126.32 253.045 126.46 252.773 126.543 252.455H127.884C127.808 252.97 127.621 253.434 127.322 253.847C127.026 254.256 126.634 254.581 126.146 254.824C125.661 255.062 125.096 255.182 124.452 255.182ZM129.844 255V246.273H136.708V255H135.367V247.523H131.185V255H129.844ZM142.816 255.182C141.975 255.182 141.25 254.996 140.64 254.625C140.034 254.25 139.566 253.727 139.237 253.057C138.911 252.383 138.748 251.598 138.748 250.705C138.748 249.811 138.911 249.023 139.237 248.341C139.566 247.655 140.024 247.121 140.612 246.739C141.202 246.352 141.892 246.159 142.68 246.159C143.134 246.159 143.583 246.235 144.026 246.386C144.469 246.538 144.873 246.784 145.237 247.125C145.6 247.462 145.89 247.909 146.106 248.466C146.322 249.023 146.43 249.708 146.43 250.523V251.091H139.702V249.932H145.066C145.066 249.439 144.968 249 144.771 248.614C144.577 248.227 144.301 247.922 143.941 247.699C143.585 247.475 143.165 247.364 142.68 247.364C142.146 247.364 141.683 247.496 141.293 247.761C140.907 248.023 140.61 248.364 140.401 248.784C140.193 249.205 140.089 249.655 140.089 250.136V250.909C140.089 251.568 140.202 252.127 140.43 252.585C140.661 253.04 140.981 253.386 141.39 253.625C141.799 253.86 142.274 253.977 142.816 253.977C143.168 253.977 143.487 253.928 143.771 253.83C144.058 253.727 144.307 253.576 144.515 253.375C144.723 253.17 144.884 252.917 144.998 252.614L146.293 252.977C146.157 253.417 145.928 253.803 145.606 254.136C145.284 254.466 144.886 254.723 144.413 254.909C143.939 255.091 143.407 255.182 142.816 255.182ZM155.197 246.273V255H153.856V246.273H155.197ZM154.674 250.432V251.682C154.371 251.795 154.07 251.896 153.771 251.983C153.471 252.066 153.157 252.133 152.827 252.182C152.498 252.227 152.136 252.25 151.742 252.25C150.754 252.25 149.96 251.983 149.362 251.449C148.767 250.915 148.469 250.114 148.469 249.045V246.25H149.81V249.045C149.81 249.492 149.896 249.86 150.066 250.148C150.237 250.436 150.468 250.65 150.759 250.79C151.051 250.93 151.379 251 151.742 251C152.31 251 152.824 250.949 153.282 250.847C153.744 250.741 154.208 250.602 154.674 250.432ZM160.225 255.205C159.672 255.205 159.17 255.1 158.719 254.892C158.269 254.68 157.911 254.375 157.646 253.977C157.38 253.576 157.248 253.091 157.248 252.523C157.248 252.023 157.346 251.617 157.543 251.307C157.74 250.992 158.004 250.746 158.333 250.568C158.663 250.39 159.026 250.258 159.424 250.17C159.826 250.08 160.229 250.008 160.634 249.955C161.165 249.886 161.594 249.835 161.924 249.801C162.257 249.763 162.5 249.701 162.651 249.614C162.807 249.527 162.884 249.375 162.884 249.159V249.114C162.884 248.553 162.731 248.117 162.424 247.807C162.121 247.496 161.661 247.341 161.043 247.341C160.403 247.341 159.901 247.481 159.538 247.761C159.174 248.042 158.918 248.341 158.771 248.659L157.498 248.205C157.725 247.674 158.028 247.261 158.407 246.966C158.79 246.667 159.206 246.458 159.657 246.341C160.112 246.22 160.558 246.159 160.998 246.159C161.278 246.159 161.6 246.193 161.964 246.261C162.331 246.326 162.685 246.46 163.026 246.665C163.371 246.869 163.657 247.178 163.884 247.591C164.112 248.004 164.225 248.557 164.225 249.25V255H162.884V253.818H162.816C162.725 254.008 162.574 254.21 162.362 254.426C162.149 254.642 161.867 254.826 161.515 254.977C161.163 255.129 160.733 255.205 160.225 255.205ZM160.43 254C160.96 254 161.407 253.896 161.771 253.688C162.138 253.479 162.415 253.21 162.6 252.881C162.79 252.551 162.884 252.205 162.884 251.841V250.614C162.827 250.682 162.702 250.744 162.509 250.801C162.32 250.854 162.1 250.902 161.85 250.943C161.604 250.981 161.363 251.015 161.129 251.045C160.897 251.072 160.71 251.095 160.566 251.114C160.218 251.159 159.892 251.233 159.589 251.335C159.29 251.434 159.047 251.583 158.862 251.784C158.68 251.981 158.589 252.25 158.589 252.591C158.589 253.057 158.761 253.409 159.106 253.648C159.454 253.883 159.896 254 160.43 254ZM165.485 247.523V246.273H172.576V247.523H169.712V255H168.371V247.523H165.485ZM176.647 255.205C176.094 255.205 175.592 255.1 175.141 254.892C174.691 254.68 174.333 254.375 174.067 253.977C173.802 253.576 173.67 253.091 173.67 252.523C173.67 252.023 173.768 251.617 173.965 251.307C174.162 250.992 174.425 250.746 174.755 250.568C175.085 250.39 175.448 250.258 175.846 250.17C176.247 250.08 176.651 250.008 177.056 249.955C177.586 249.886 178.016 249.835 178.346 249.801C178.679 249.763 178.922 249.701 179.073 249.614C179.228 249.527 179.306 249.375 179.306 249.159V249.114C179.306 248.553 179.153 248.117 178.846 247.807C178.543 247.496 178.083 247.341 177.465 247.341C176.825 247.341 176.323 247.481 175.96 247.761C175.596 248.042 175.34 248.341 175.192 248.659L173.92 248.205C174.147 247.674 174.45 247.261 174.829 246.966C175.211 246.667 175.628 246.458 176.079 246.341C176.533 246.22 176.98 246.159 177.42 246.159C177.7 246.159 178.022 246.193 178.386 246.261C178.753 246.326 179.107 246.46 179.448 246.665C179.793 246.869 180.079 247.178 180.306 247.591C180.533 248.004 180.647 248.557 180.647 249.25V255H179.306V253.818H179.238C179.147 254.008 178.996 254.21 178.783 254.426C178.571 254.642 178.289 254.826 177.937 254.977C177.585 255.129 177.155 255.205 176.647 255.205ZM176.852 254C177.382 254 177.829 253.896 178.192 253.688C178.56 253.479 178.836 253.21 179.022 252.881C179.211 252.551 179.306 252.205 179.306 251.841V250.614C179.249 250.682 179.124 250.744 178.931 250.801C178.742 250.854 178.522 250.902 178.272 250.943C178.026 250.981 177.785 251.015 177.55 251.045C177.319 251.072 177.132 251.095 176.988 251.114C176.639 251.159 176.314 251.233 176.011 251.335C175.711 251.434 175.469 251.583 175.283 251.784C175.102 251.981 175.011 252.25 175.011 252.591C175.011 253.057 175.183 253.409 175.528 253.648C175.876 253.883 176.317 254 176.852 254ZM184.435 253.023L188.64 246.273H190.185V255H188.844V248.25L184.663 255H183.094V246.273H184.435V253.023ZM187.754 243.364H189.004C189.004 243.977 188.791 244.479 188.367 244.869C187.943 245.259 187.367 245.455 186.64 245.455C185.924 245.455 185.354 245.259 184.93 244.869C184.509 244.479 184.299 243.977 184.299 243.364H185.549C185.549 243.659 185.63 243.919 185.793 244.142C185.96 244.366 186.242 244.477 186.64 244.477C187.038 244.477 187.322 244.366 187.492 244.142C187.666 243.919 187.754 243.659 187.754 243.364ZM191.454 247.523V246.273H198.545V247.523H195.681V255H194.34V247.523H191.454ZM203.707 255.182C202.866 255.182 202.14 254.996 201.531 254.625C200.924 254.25 200.457 253.727 200.127 253.057C199.801 252.383 199.638 251.598 199.638 250.705C199.638 249.811 199.801 249.023 200.127 248.341C200.457 247.655 200.915 247.121 201.502 246.739C202.093 246.352 202.782 246.159 203.57 246.159C204.025 246.159 204.474 246.235 204.917 246.386C205.36 246.538 205.763 246.784 206.127 247.125C206.491 247.462 206.781 247.909 206.996 248.466C207.212 249.023 207.32 249.708 207.32 250.523V251.091H200.593V249.932H205.957C205.957 249.439 205.858 249 205.661 248.614C205.468 248.227 205.192 247.922 204.832 247.699C204.476 247.475 204.055 247.364 203.57 247.364C203.036 247.364 202.574 247.496 202.184 247.761C201.798 248.023 201.5 248.364 201.292 248.784C201.084 249.205 200.979 249.655 200.979 250.136V250.909C200.979 251.568 201.093 252.127 201.32 252.585C201.551 253.04 201.871 253.386 202.281 253.625C202.69 253.86 203.165 253.977 203.707 253.977C204.059 253.977 204.377 253.928 204.661 253.83C204.949 253.727 205.197 253.576 205.406 253.375C205.614 253.17 205.775 252.917 205.888 252.614L207.184 252.977C207.048 253.417 206.818 253.803 206.496 254.136C206.174 254.466 205.777 254.723 205.303 254.909C204.83 255.091 204.298 255.182 203.707 255.182Z" fill="black"/>
<path opacity="0.1" d="M25.7273 101.545V84L63.8636 23.9091H79.4545V47.7273H70.4091L48.0909 83.0909V83.8182H103.318V101.545H25.7273ZM70.6818 117V96.1818L71.1364 88.5V23.9091H92.1818V117H70.6818Z" fill="#5200D9"/>
<g clip-path="url(#clip1_64_881)">
<path d="M127.956 87.6949C126.972 87.6949 126.165 86.8871 126.165 85.903C126.165 84.9188 126.972 84.136 127.956 84.136H144.012C144.996 84.136 145.804 84.9188 145.804 85.903C145.804 86.8871 144.997 87.6949 144.012 87.6949H127.956ZM127.956 112.787C127.482 112.786 127.027 112.596 126.691 112.26C126.355 111.924 126.166 111.469 126.165 110.995C126.165 110.01 126.972 109.228 127.956 109.228H159.537C160.521 109.228 161.329 110.01 161.329 110.995C161.329 111.979 160.522 112.787 159.537 112.787H127.956ZM127.956 104.76C126.972 104.76 126.165 103.978 126.165 102.993C126.166 102.519 126.356 102.064 126.691 101.728C127.027 101.393 127.482 101.203 127.956 101.201H168.044C169.029 101.201 169.811 102.008 169.811 102.993C169.811 103.978 169.029 104.76 168.044 104.76H127.956ZM127.956 96.7579C126.972 96.7579 126.165 95.9501 126.165 94.966C126.165 93.9818 126.972 93.199 127.956 93.199H168.044C169.029 93.199 169.811 93.9818 169.811 94.966C169.811 95.9501 169.029 96.7579 168.044 96.7579H127.956ZM112.028 165.901C113.012 165.901 113.82 166.684 113.82 167.668C113.82 168.652 113.012 169.461 112.028 169.461H98.6736C96.578 169.461 94.6605 168.577 93.2462 167.188C93.2212 167.163 93.1954 167.112 93.1455 167.087C91.8327 165.699 91 163.831 91 161.76V132.25C91 128.515 92.5399 125.132 94.9891 122.658C97.4624 120.21 100.845 118.67 104.582 118.67H191.42C195.156 118.67 198.539 120.21 201.013 122.658C203.462 125.132 205.002 128.515 205.002 132.25V161.761C205.002 163.882 204.118 165.8 202.73 167.189C202.706 167.239 202.653 167.264 202.629 167.289C201.241 168.628 199.373 169.461 197.304 169.461H184.026C183.042 169.461 182.232 168.653 182.232 167.668C182.232 166.683 183.041 165.901 184.026 165.901H197.304C198.413 165.901 199.398 165.446 200.156 164.765C200.156 164.74 200.18 164.714 200.231 164.665C201.003 163.895 201.438 162.851 201.443 161.761V132.25C201.443 129.499 200.307 127 198.49 125.182C196.673 123.364 194.173 122.229 191.421 122.229H104.581C101.829 122.229 99.33 123.364 97.5122 125.182C95.6945 127 94.5598 129.499 94.5598 132.25V161.761C94.5541 162.816 94.9618 163.831 95.6954 164.589L95.7711 164.665C96.529 165.422 97.5639 165.902 98.6745 165.902L112.028 165.901Z" fill="#5200D9"/>
<path d="M186.876 127.025C188.593 127.025 190.156 127.731 191.267 128.868C191.318 128.893 191.342 128.943 191.395 128.968C192.454 130.104 193.11 131.62 193.11 133.258C193.109 134.08 192.946 134.893 192.63 135.651C192.313 136.409 191.851 137.098 191.268 137.677C190.133 138.812 188.594 139.495 186.877 139.495C185.16 139.495 183.594 138.812 182.458 137.677C181.298 136.498 180.645 134.912 180.641 133.258C180.641 131.543 181.347 129.977 182.458 128.867C183.037 128.284 183.725 127.822 184.483 127.506C185.242 127.19 186.054 127.026 186.876 127.025ZM188.768 131.367C188.288 130.888 187.608 130.585 186.876 130.585C186.144 130.585 185.461 130.888 184.981 131.367C184.501 131.871 184.199 132.528 184.199 133.259C184.199 133.991 184.501 134.674 184.981 135.153C185.229 135.403 185.524 135.601 185.85 135.735C186.175 135.869 186.524 135.938 186.876 135.936C187.585 135.934 188.265 135.653 188.768 135.153C189.018 134.905 189.216 134.61 189.35 134.285C189.484 133.96 189.552 133.611 189.55 133.259C189.55 132.553 189.272 131.922 188.845 131.442L188.768 131.367Z" fill="#5200D9"/>
<path fill-rule="evenodd" clip-rule="evenodd" d="M107.358 131.493C108.342 131.493 109.151 132.275 109.151 133.259C109.151 134.243 108.343 135.052 107.358 135.052C106.373 135.052 105.591 134.244 105.591 133.259C105.591 132.274 106.373 131.493 107.358 131.493ZM123.034 131.493C124.018 131.493 124.827 132.275 124.827 133.259C124.827 134.243 124.019 135.052 123.034 135.052C122.05 135.052 121.267 134.244 121.267 133.259C121.267 132.274 122.05 131.493 123.034 131.493ZM115.208 131.493C116.193 131.493 116.975 132.275 116.975 133.259C116.975 134.243 116.193 135.052 115.208 135.052C114.224 135.052 113.416 134.244 113.416 133.259C113.416 132.274 114.224 131.493 115.208 131.493Z" fill="#5200D9"/>
<path d="M179.378 148.179C179.226 147.22 179.907 146.311 180.892 146.159C181.85 146.033 182.76 146.715 182.887 147.674L187.354 178.219C187.38 178.446 187.405 178.674 187.405 178.875C187.405 180.212 186.85 181.398 185.966 182.308C185.111 183.179 183.994 183.747 182.785 183.923C182.536 183.974 182.282 183.999 182.028 183.999H113.971C113.719 183.999 113.467 183.974 113.214 183.923H113.138C111.961 183.718 110.876 183.154 110.033 182.308C109.15 181.398 108.594 180.212 108.594 178.875C108.594 178.673 108.619 178.446 108.645 178.219L113.087 147.674C113.16 147.208 113.412 146.789 113.789 146.506C114.166 146.223 114.639 146.099 115.106 146.159C115.573 146.231 115.993 146.482 116.276 146.86C116.559 147.238 116.683 147.711 116.621 148.179L112.153 178.725V178.876C112.153 179.229 112.33 179.557 112.582 179.835C112.86 180.137 113.264 180.339 113.668 180.414H113.719C113.794 180.414 113.87 180.439 113.971 180.439H182.028C182.129 180.439 182.205 180.414 182.28 180.414C182.709 180.341 183.105 180.139 183.416 179.835C183.668 179.556 183.845 179.229 183.845 178.876C183.845 178.825 183.845 178.75 183.821 178.725L179.378 148.179Z" fill="#5200D9"/>
<path d="M107.787 156.434C108.772 156.434 109.554 157.242 109.554 158.227C109.554 159.212 108.772 159.994 107.787 159.994C106.323 159.994 104.986 159.388 104.001 158.428C103.042 157.444 102.436 156.107 102.436 154.666V151.486C102.439 150.074 103.002 148.721 104.001 147.725H104.026C104.516 147.225 105.102 146.829 105.748 146.56C106.394 146.291 107.088 146.155 107.787 146.159H188.289C189.753 146.159 191.091 146.74 192.051 147.725C192.549 148.216 192.944 148.802 193.213 149.448C193.481 150.094 193.619 150.786 193.617 151.486V154.666C193.619 155.366 193.482 156.059 193.213 156.705C192.944 157.351 192.549 157.937 192.051 158.428C191.56 158.926 190.974 159.321 190.328 159.59C189.682 159.859 188.989 159.996 188.289 159.994C187.305 159.994 186.497 159.211 186.497 158.227C186.497 157.243 187.304 156.434 188.289 156.434C188.758 156.428 189.208 156.248 189.551 155.929V155.904C189.854 155.602 190.055 155.147 190.055 154.667V151.487C190.055 151.007 189.853 150.553 189.551 150.25V150.225C189.208 149.906 188.758 149.726 188.289 149.721H107.787C107.282 149.721 106.828 149.923 106.525 150.225V150.25C106.197 150.553 105.995 151.007 105.995 151.487V154.667C105.995 155.147 106.198 155.602 106.525 155.904V155.929C106.827 156.232 107.282 156.434 107.787 156.434ZM116.647 113.545C116.647 114.529 115.84 115.337 114.855 115.337C113.87 115.337 113.088 114.529 113.088 113.545V74.7711C113.086 74.1475 113.208 73.5298 113.446 72.9536C113.685 72.3773 114.035 71.8539 114.476 71.4134L114.602 71.287C115.461 70.5041 116.597 70 117.86 70H166.352C166.967 70.0005 167.577 70.1202 168.146 70.3527C168.725 70.5798 169.232 70.9075 169.686 71.3368L181.374 82.3432C181.878 82.8223 182.282 83.3531 182.534 83.9579C182.786 84.5644 182.913 85.1958 182.913 85.8763V113.544C182.913 114.528 182.131 115.335 181.146 115.335C180.162 115.335 179.355 114.528 179.355 113.544V88.427L171.073 88.452V88.4769H171.049V88.452C168.652 88.452 166.834 87.6183 165.621 86.3065C164.384 84.9678 163.803 83.2267 163.803 81.359H163.779V73.5589H117.86C117.557 73.5589 117.254 73.6854 117.052 73.8626L117.001 73.9134C116.888 74.026 116.799 74.1599 116.738 74.3073C116.678 74.4547 116.647 74.6126 116.648 74.772L116.647 113.545ZM178.898 84.893L167.336 74.0132V81.3599C167.336 82.3441 167.639 83.2525 168.22 83.8831C168.801 84.5145 169.735 84.918 171.048 84.918H171.072L178.898 84.893Z" fill="#5200D9"/>
</g>
</g>
<defs>
<clipPath id="clip0_64_881">
<rect width="295" height="295" rx="5" fill="white"/>
</clipPath>
<clipPath id="clip1_64_881">
<rect width="114" height="114" fill="white" transform="translate(91 70)"/>
</clipPath>
</defs>
</svg>
