<svg width="295" height="295" viewBox="0 0 295 295" fill="none" xmlns="http://www.w3.org/2000/svg">
<g clip-path="url(#clip0_64_867)">
<rect width="295" height="295" rx="5" fill="#5200D9" fill-opacity="0.1"/>
<path d="M50.4794 231V219.364H54.5476C55.3582 219.364 56.0268 219.504 56.5533 219.784C57.0798 220.061 57.4718 220.434 57.7294 220.903C57.987 221.369 58.1158 221.886 58.1158 222.455C58.1158 222.955 58.0268 223.367 57.8487 223.693C57.6745 224.019 57.4434 224.277 57.1555 224.466C56.8714 224.655 56.5627 224.795 56.2294 224.886V225C56.5855 225.023 56.9434 225.148 57.3033 225.375C57.6631 225.602 57.9643 225.928 58.2067 226.352C58.4491 226.777 58.5703 227.295 58.5703 227.909C58.5703 228.492 58.4377 229.017 58.1726 229.483C57.9074 229.949 57.4889 230.318 56.9169 230.591C56.3449 230.864 55.6006 231 54.6839 231H50.4794ZM51.8885 229.75H54.6839C55.6044 229.75 56.2578 229.572 56.6442 229.216C57.0343 228.856 57.2294 228.42 57.2294 227.909C57.2294 227.515 57.129 227.152 56.9283 226.818C56.7275 226.481 56.4415 226.212 56.0703 226.011C55.6991 225.807 55.2597 225.705 54.7521 225.705H51.8885V229.75ZM51.8885 224.477H54.5021C54.9264 224.477 55.3089 224.394 55.6499 224.227C55.9946 224.061 56.2673 223.826 56.468 223.523C56.6726 223.22 56.7749 222.864 56.7749 222.455C56.7749 221.943 56.5968 221.509 56.2408 221.153C55.8847 220.794 55.3203 220.614 54.5476 220.614H51.8885V224.477ZM60.7038 231V222.273H64.272C65.2114 222.273 65.9576 222.485 66.5107 222.909C67.0637 223.333 67.3402 223.894 67.3402 224.591C67.3402 225.121 67.183 225.532 66.8686 225.824C66.5542 226.112 66.1508 226.307 65.6584 226.409C65.9804 226.455 66.2929 226.568 66.5959 226.75C66.9027 226.932 67.1565 227.182 67.3572 227.5C67.558 227.814 67.6584 228.201 67.6584 228.659C67.6584 229.106 67.5447 229.506 67.3175 229.858C67.0902 230.21 66.7644 230.489 66.3402 230.693C65.916 230.898 65.4084 231 64.8175 231H60.7038ZM61.9766 229.773H64.8175C65.2796 229.773 65.6413 229.663 65.9027 229.443C66.1641 229.223 66.2947 228.924 66.2947 228.545C66.2947 228.095 66.1641 227.741 65.9027 227.483C65.6413 227.222 65.2796 227.091 64.8175 227.091H61.9766V229.773ZM61.9766 225.932H64.272C64.6319 225.932 64.9406 225.883 65.1982 225.784C65.4557 225.682 65.6527 225.538 65.7891 225.352C65.9292 225.163 65.9993 224.939 65.9993 224.682C65.9993 224.314 65.8459 224.027 65.5391 223.818C65.2322 223.606 64.8099 223.5 64.272 223.5H61.9766V225.932ZM73.3473 231.182C72.5064 231.182 71.781 230.996 71.1712 230.625C70.5651 230.25 70.0973 229.727 69.7678 229.057C69.442 228.383 69.2791 227.598 69.2791 226.705C69.2791 225.811 69.442 225.023 69.7678 224.341C70.0973 223.655 70.5556 223.121 71.1428 222.739C71.7337 222.352 72.4231 222.159 73.2109 222.159C73.6655 222.159 74.1143 222.235 74.5575 222.386C75.0007 222.538 75.4041 222.784 75.7678 223.125C76.1314 223.462 76.4212 223.909 76.6371 224.466C76.853 225.023 76.9609 225.708 76.9609 226.523V227.091H70.2337V225.932H75.5973C75.5973 225.439 75.4988 225 75.3018 224.614C75.1087 224.227 74.8321 223.922 74.4723 223.699C74.1162 223.475 73.6958 223.364 73.2109 223.364C72.6768 223.364 72.2147 223.496 71.8246 223.761C71.4382 224.023 71.1409 224.364 70.9325 224.784C70.7242 225.205 70.62 225.655 70.62 226.136V226.909C70.62 227.568 70.7337 228.127 70.9609 228.585C71.192 229.04 71.5121 229.386 71.9212 229.625C72.3303 229.86 72.8056 229.977 73.3473 229.977C73.6996 229.977 74.0178 229.928 74.3018 229.83C74.5897 229.727 74.8378 229.576 75.0462 229.375C75.2545 229.17 75.4155 228.917 75.5291 228.614L76.8246 228.977C76.6882 229.417 76.459 229.803 76.1371 230.136C75.8151 230.466 75.4174 230.723 74.9439 230.909C74.4704 231.091 73.9382 231.182 73.3473 231.182ZM78.0689 233.5V229.75H78.7962C78.9742 229.564 79.1276 229.364 79.2564 229.148C79.3852 228.932 79.4969 228.676 79.5916 228.381C79.6901 228.081 79.7734 227.718 79.8416 227.29C79.9098 226.858 79.9704 226.337 80.0234 225.727L80.3189 222.273H85.8643V229.75H87.2053V233.5H85.8643V231H79.4098V233.5H78.0689ZM80.3189 229.75H84.5234V223.523H81.5689L81.3416 225.727C81.2469 226.64 81.1295 227.437 80.9893 228.119C80.8492 228.801 80.6257 229.345 80.3189 229.75ZM90.326 229.023L94.5305 222.273H96.076V231H94.7351V224.25L90.5533 231H88.9851V222.273H90.326V229.023ZM97.3445 223.523V222.273H104.435V223.523H101.572V231H100.231V223.523H97.3445ZM109.597 231.182C108.756 231.182 108.031 230.996 107.421 230.625C106.815 230.25 106.347 229.727 106.018 229.057C105.692 228.383 105.529 227.598 105.529 226.705C105.529 225.811 105.692 225.023 106.018 224.341C106.347 223.655 106.806 223.121 107.393 222.739C107.984 222.352 108.673 222.159 109.461 222.159C109.915 222.159 110.364 222.235 110.808 222.386C111.251 222.538 111.654 222.784 112.018 223.125C112.381 223.462 112.671 223.909 112.887 224.466C113.103 225.023 113.211 225.708 113.211 226.523V227.091H106.484V225.932H111.847C111.847 225.439 111.749 225 111.552 224.614C111.359 224.227 111.082 223.922 110.722 223.699C110.366 223.475 109.946 223.364 109.461 223.364C108.927 223.364 108.465 223.496 108.075 223.761C107.688 224.023 107.391 224.364 107.183 224.784C106.974 225.205 106.87 225.655 106.87 226.136V226.909C106.87 227.568 106.984 228.127 107.211 228.585C107.442 229.04 107.762 229.386 108.171 229.625C108.58 229.86 109.056 229.977 109.597 229.977C109.95 229.977 110.268 229.928 110.552 229.83C110.84 229.727 111.088 229.576 111.296 229.375C111.504 229.17 111.665 228.917 111.779 228.614L113.075 228.977C112.938 229.417 112.709 229.803 112.387 230.136C112.065 230.466 111.667 230.723 111.194 230.909C110.72 231.091 110.188 231.182 109.597 231.182ZM118.819 233.5V229.75H119.546C119.724 229.564 119.878 229.364 120.006 229.148C120.135 228.932 120.247 228.676 120.342 228.381C120.44 228.081 120.523 227.718 120.592 227.29C120.66 226.858 120.72 226.337 120.773 225.727L121.069 222.273H126.614V229.75H127.955V233.5H126.614V231H120.16V233.5H118.819ZM121.069 229.75H125.273V223.523H122.319L122.092 225.727C121.997 226.64 121.879 227.437 121.739 228.119C121.599 228.801 121.376 229.345 121.069 229.75ZM132.303 231.205C131.75 231.205 131.248 231.1 130.798 230.892C130.347 230.68 129.989 230.375 129.724 229.977C129.459 229.576 129.326 229.091 129.326 228.523C129.326 228.023 129.424 227.617 129.621 227.307C129.818 226.992 130.082 226.746 130.411 226.568C130.741 226.39 131.104 226.258 131.502 226.17C131.904 226.08 132.307 226.008 132.712 225.955C133.243 225.886 133.673 225.835 134.002 225.801C134.335 225.763 134.578 225.701 134.729 225.614C134.885 225.527 134.962 225.375 134.962 225.159V225.114C134.962 224.553 134.809 224.117 134.502 223.807C134.199 223.496 133.739 223.341 133.121 223.341C132.481 223.341 131.979 223.481 131.616 223.761C131.252 224.042 130.996 224.341 130.849 224.659L129.576 224.205C129.803 223.674 130.106 223.261 130.485 222.966C130.868 222.667 131.284 222.458 131.735 222.341C132.19 222.22 132.637 222.159 133.076 222.159C133.356 222.159 133.678 222.193 134.042 222.261C134.409 222.326 134.763 222.46 135.104 222.665C135.449 222.869 135.735 223.178 135.962 223.591C136.19 224.004 136.303 224.557 136.303 225.25V231H134.962V229.818H134.894C134.803 230.008 134.652 230.21 134.44 230.426C134.228 230.642 133.945 230.826 133.593 230.977C133.241 231.129 132.811 231.205 132.303 231.205ZM132.508 230C133.038 230 133.485 229.896 133.849 229.688C134.216 229.479 134.493 229.21 134.678 228.881C134.868 228.551 134.962 228.205 134.962 227.841V226.614C134.906 226.682 134.781 226.744 134.587 226.801C134.398 226.854 134.178 226.902 133.928 226.943C133.682 226.981 133.442 227.015 133.207 227.045C132.976 227.072 132.788 227.095 132.644 227.114C132.296 227.159 131.97 227.233 131.667 227.335C131.368 227.434 131.125 227.583 130.94 227.784C130.758 227.981 130.667 228.25 130.667 228.591C130.667 229.057 130.839 229.409 131.184 229.648C131.532 229.883 131.974 230 132.508 230ZM144.592 226.023V227.273H139.773V226.023H144.592ZM140.092 222.273V231H138.751V222.273H140.092ZM145.614 222.273V231H144.273V222.273H145.614ZM153.904 226.023V227.273H149.086V226.023H153.904ZM149.404 222.273V231H148.063V222.273H149.404ZM154.927 222.273V231H153.586V222.273H154.927ZM158.535 225.432H161.035C162.058 225.432 162.84 225.691 163.381 226.21C163.923 226.729 164.194 227.386 164.194 228.182C164.194 228.705 164.073 229.18 163.83 229.608C163.588 230.032 163.232 230.371 162.762 230.625C162.292 230.875 161.717 231 161.035 231H157.376V222.273H158.717V229.75H161.035C161.565 229.75 162.001 229.61 162.342 229.33C162.683 229.049 162.853 228.689 162.853 228.25C162.853 227.788 162.683 227.411 162.342 227.119C162.001 226.828 161.565 226.682 161.035 226.682H158.535V225.432ZM165.58 231V222.273H166.921V231H165.58ZM173.035 231.182C172.194 231.182 171.469 230.996 170.859 230.625C170.253 230.25 169.785 229.727 169.455 229.057C169.129 228.383 168.967 227.598 168.967 226.705C168.967 225.811 169.129 225.023 169.455 224.341C169.785 223.655 170.243 223.121 170.83 222.739C171.421 222.352 172.111 222.159 172.898 222.159C173.353 222.159 173.802 222.235 174.245 222.386C174.688 222.538 175.092 222.784 175.455 223.125C175.819 223.462 176.109 223.909 176.325 224.466C176.54 225.023 176.648 225.708 176.648 226.523V227.091H169.921V225.932H175.285C175.285 225.439 175.186 225 174.989 224.614C174.796 224.227 174.52 223.922 174.16 223.699C173.804 223.475 173.383 223.364 172.898 223.364C172.364 223.364 171.902 223.496 171.512 223.761C171.126 224.023 170.828 224.364 170.62 224.784C170.412 225.205 170.308 225.655 170.308 226.136V226.909C170.308 227.568 170.421 228.127 170.648 228.585C170.879 229.04 171.2 229.386 171.609 229.625C172.018 229.86 172.493 229.977 173.035 229.977C173.387 229.977 173.705 229.928 173.989 229.83C174.277 229.727 174.525 229.576 174.734 229.375C174.942 229.17 175.103 228.917 175.217 228.614L176.512 228.977C176.376 229.417 176.147 229.803 175.825 230.136C175.503 230.466 175.105 230.723 174.631 230.909C174.158 231.091 173.626 231.182 173.035 231.182ZM186.734 231.182C185.946 231.182 185.254 230.994 184.66 230.619C184.069 230.244 183.607 229.72 183.273 229.045C182.944 228.371 182.779 227.583 182.779 226.682C182.779 225.773 182.944 224.979 183.273 224.301C183.607 223.623 184.069 223.097 184.66 222.722C185.254 222.347 185.946 222.159 186.734 222.159C187.522 222.159 188.211 222.347 188.802 222.722C189.397 223.097 189.859 223.623 190.188 224.301C190.522 224.979 190.688 225.773 190.688 226.682C190.688 227.583 190.522 228.371 190.188 229.045C189.859 229.72 189.397 230.244 188.802 230.619C188.211 230.994 187.522 231.182 186.734 231.182ZM186.734 229.977C187.332 229.977 187.825 229.824 188.211 229.517C188.597 229.21 188.883 228.807 189.069 228.307C189.254 227.807 189.347 227.265 189.347 226.682C189.347 226.098 189.254 225.555 189.069 225.051C188.883 224.547 188.597 224.14 188.211 223.83C187.825 223.519 187.332 223.364 186.734 223.364C186.135 223.364 185.643 223.519 185.256 223.83C184.87 224.14 184.584 224.547 184.398 225.051C184.213 225.555 184.12 226.098 184.12 226.682C184.12 227.265 184.213 227.807 184.398 228.307C184.584 228.807 184.87 229.21 185.256 229.517C185.643 229.824 186.135 229.977 186.734 229.977ZM197.235 231V222.273H200.803C201.743 222.273 202.489 222.485 203.042 222.909C203.595 223.333 203.871 223.894 203.871 224.591C203.871 225.121 203.714 225.532 203.4 225.824C203.085 226.112 202.682 226.307 202.19 226.409C202.512 226.455 202.824 226.568 203.127 226.75C203.434 226.932 203.688 227.182 203.888 227.5C204.089 227.814 204.19 228.201 204.19 228.659C204.19 229.106 204.076 229.506 203.849 229.858C203.621 230.21 203.296 230.489 202.871 230.693C202.447 230.898 201.94 231 201.349 231H197.235ZM198.508 229.773H201.349C201.811 229.773 202.173 229.663 202.434 229.443C202.695 229.223 202.826 228.924 202.826 228.545C202.826 228.095 202.695 227.741 202.434 227.483C202.173 227.222 201.811 227.091 201.349 227.091H198.508V229.773ZM198.508 225.932H200.803C201.163 225.932 201.472 225.883 201.729 225.784C201.987 225.682 202.184 225.538 202.32 225.352C202.46 225.163 202.531 224.939 202.531 224.682C202.531 224.314 202.377 224.027 202.07 223.818C201.763 223.606 201.341 223.5 200.803 223.5H198.508V225.932ZM208.788 231.205C208.235 231.205 207.733 231.1 207.282 230.892C206.831 230.68 206.473 230.375 206.208 229.977C205.943 229.576 205.81 229.091 205.81 228.523C205.81 228.023 205.909 227.617 206.106 227.307C206.303 226.992 206.566 226.746 206.896 226.568C207.225 226.39 207.589 226.258 207.987 226.17C208.388 226.08 208.791 226.008 209.197 225.955C209.727 225.886 210.157 225.835 210.487 225.801C210.82 225.763 211.062 225.701 211.214 225.614C211.369 225.527 211.447 225.375 211.447 225.159V225.114C211.447 224.553 211.293 224.117 210.987 223.807C210.683 223.496 210.223 223.341 209.606 223.341C208.966 223.341 208.464 223.481 208.1 223.761C207.737 224.042 207.481 224.341 207.333 224.659L206.06 224.205C206.288 223.674 206.591 223.261 206.969 222.966C207.352 222.667 207.769 222.458 208.219 222.341C208.674 222.22 209.121 222.159 209.56 222.159C209.841 222.159 210.163 222.193 210.526 222.261C210.894 222.326 211.248 222.46 211.589 222.665C211.933 222.869 212.219 223.178 212.447 223.591C212.674 224.004 212.788 224.557 212.788 225.25V231H211.447V229.818H211.379C211.288 230.008 211.136 230.21 210.924 230.426C210.712 230.642 210.43 230.826 210.077 230.977C209.725 231.129 209.295 231.205 208.788 231.205ZM208.992 230C209.522 230 209.969 229.896 210.333 229.688C210.701 229.479 210.977 229.21 211.163 228.881C211.352 228.551 211.447 228.205 211.447 227.841V226.614C211.39 226.682 211.265 226.744 211.072 226.801C210.882 226.854 210.663 226.902 210.413 226.943C210.166 226.981 209.926 227.015 209.691 227.045C209.46 227.072 209.272 227.095 209.129 227.114C208.78 227.159 208.454 227.233 208.151 227.335C207.852 227.434 207.61 227.583 207.424 227.784C207.242 227.981 207.151 228.25 207.151 228.591C207.151 229.057 207.324 229.409 207.668 229.648C208.017 229.883 208.458 230 208.992 230ZM215.235 222.273H216.576V229.75H219.871V222.273H221.212V229.75H224.508V222.273H225.849V231H215.235V222.273ZM231.957 231.182C231.116 231.182 230.39 230.996 229.781 230.625C229.174 230.25 228.707 229.727 228.377 229.057C228.051 228.383 227.888 227.598 227.888 226.705C227.888 225.811 228.051 225.023 228.377 224.341C228.707 223.655 229.165 223.121 229.752 222.739C230.343 222.352 231.032 222.159 231.82 222.159C232.275 222.159 232.724 222.235 233.167 222.386C233.61 222.538 234.013 222.784 234.377 223.125C234.741 223.462 235.031 223.909 235.246 224.466C235.462 225.023 235.57 225.708 235.57 226.523V227.091H228.843V225.932H234.207C234.207 225.439 234.108 225 233.911 224.614C233.718 224.227 233.442 223.922 233.082 223.699C232.726 223.475 232.305 223.364 231.82 223.364C231.286 223.364 230.824 223.496 230.434 223.761C230.048 224.023 229.75 224.364 229.542 224.784C229.334 225.205 229.229 225.655 229.229 226.136V226.909C229.229 227.568 229.343 228.127 229.57 228.585C229.801 229.04 230.121 229.386 230.531 229.625C230.94 229.86 231.415 229.977 231.957 229.977C232.309 229.977 232.627 229.928 232.911 229.83C233.199 229.727 233.447 229.576 233.656 229.375C233.864 229.17 234.025 228.917 234.138 228.614L235.434 228.977C235.298 229.417 235.068 229.803 234.746 230.136C234.424 230.466 234.027 230.723 233.553 230.909C233.08 231.091 232.548 231.182 231.957 231.182ZM238.951 229.023L243.156 222.273H244.701V231H243.36V224.25L239.178 231H237.61V222.273H238.951V229.023ZM242.269 219.364H243.519C243.519 219.977 243.307 220.479 242.883 220.869C242.459 221.259 241.883 221.455 241.156 221.455C240.44 221.455 239.87 221.259 239.445 220.869C239.025 220.479 238.815 219.977 238.815 219.364H240.065C240.065 219.659 240.146 219.919 240.309 220.142C240.476 220.366 240.758 220.477 241.156 220.477C241.553 220.477 241.837 220.366 242.008 220.142C242.182 219.919 242.269 219.659 242.269 219.364ZM116.923 255V246.273H123.786V255H122.445V247.523H118.263V255H116.923ZM129.781 255.182C128.993 255.182 128.301 254.994 127.707 254.619C127.116 254.244 126.654 253.72 126.32 253.045C125.991 252.371 125.826 251.583 125.826 250.682C125.826 249.773 125.991 248.979 126.32 248.301C126.654 247.623 127.116 247.097 127.707 246.722C128.301 246.347 128.993 246.159 129.781 246.159C130.568 246.159 131.258 246.347 131.849 246.722C132.443 247.097 132.906 247.623 133.235 248.301C133.568 248.979 133.735 249.773 133.735 250.682C133.735 251.583 133.568 252.371 133.235 253.045C132.906 253.72 132.443 254.244 131.849 254.619C131.258 254.994 130.568 255.182 129.781 255.182ZM129.781 253.977C130.379 253.977 130.871 253.824 131.258 253.517C131.644 253.21 131.93 252.807 132.116 252.307C132.301 251.807 132.394 251.265 132.394 250.682C132.394 250.098 132.301 249.555 132.116 249.051C131.93 248.547 131.644 248.14 131.258 247.83C130.871 247.519 130.379 247.364 129.781 247.364C129.182 247.364 128.69 247.519 128.303 247.83C127.917 248.14 127.631 248.547 127.445 249.051C127.26 249.555 127.167 250.098 127.167 250.682C127.167 251.265 127.26 251.807 127.445 252.307C127.631 252.807 127.917 253.21 128.303 253.517C128.69 253.824 129.182 253.977 129.781 253.977ZM139.441 255.182C138.6 255.182 137.875 254.996 137.265 254.625C136.659 254.25 136.191 253.727 135.862 253.057C135.536 252.383 135.373 251.598 135.373 250.705C135.373 249.811 135.536 249.023 135.862 248.341C136.191 247.655 136.649 247.121 137.237 246.739C137.827 246.352 138.517 246.159 139.305 246.159C139.759 246.159 140.208 246.235 140.651 246.386C141.094 246.538 141.498 246.784 141.862 247.125C142.225 247.462 142.515 247.909 142.731 248.466C142.947 249.023 143.055 249.708 143.055 250.523V251.091H136.327V249.932H141.691C141.691 249.439 141.593 249 141.396 248.614C141.202 248.227 140.926 247.922 140.566 247.699C140.21 247.475 139.79 247.364 139.305 247.364C138.771 247.364 138.308 247.496 137.918 247.761C137.532 248.023 137.235 248.364 137.026 248.784C136.818 249.205 136.714 249.655 136.714 250.136V250.909C136.714 251.568 136.827 252.127 137.055 252.585C137.286 253.04 137.606 253.386 138.015 253.625C138.424 253.86 138.899 253.977 139.441 253.977C139.793 253.977 140.112 253.928 140.396 253.83C140.683 253.727 140.932 253.576 141.14 253.375C141.348 253.17 141.509 252.917 141.623 252.614L142.918 252.977C142.782 253.417 142.553 253.803 142.231 254.136C141.909 254.466 141.511 254.723 141.038 254.909C140.564 255.091 140.032 255.182 139.441 255.182ZM144.549 252.773H145.981C146.011 253.167 146.189 253.466 146.515 253.67C146.844 253.875 147.272 253.977 147.799 253.977C148.337 253.977 148.797 253.867 149.18 253.648C149.562 253.424 149.754 253.064 149.754 252.568C149.754 252.277 149.682 252.023 149.538 251.807C149.394 251.587 149.191 251.417 148.93 251.295C148.668 251.174 148.36 251.114 148.004 251.114H146.504V249.909H148.004C148.538 249.909 148.932 249.788 149.185 249.545C149.443 249.303 149.572 249 149.572 248.636C149.572 248.246 149.433 247.934 149.157 247.699C148.88 247.46 148.488 247.341 147.981 247.341C147.469 247.341 147.043 247.456 146.702 247.688C146.362 247.915 146.182 248.208 146.163 248.568H144.754C144.769 248.098 144.913 247.684 145.185 247.324C145.458 246.96 145.829 246.676 146.299 246.472C146.769 246.263 147.307 246.159 147.913 246.159C148.526 246.159 149.058 246.267 149.509 246.483C149.964 246.695 150.314 246.985 150.56 247.352C150.81 247.716 150.935 248.129 150.935 248.591C150.935 249.083 150.797 249.481 150.521 249.784C150.244 250.087 149.897 250.303 149.481 250.432V250.523C149.81 250.545 150.096 250.652 150.339 250.841C150.585 251.027 150.776 251.271 150.913 251.574C151.049 251.873 151.117 252.205 151.117 252.568C151.117 253.098 150.975 253.561 150.691 253.955C150.407 254.345 150.017 254.648 149.521 254.864C149.024 255.076 148.458 255.182 147.822 255.182C147.204 255.182 146.651 255.081 146.163 254.881C145.674 254.676 145.286 254.394 144.998 254.034C144.714 253.67 144.564 253.25 144.549 252.773ZM152.069 257.5V253.75H152.796C152.974 253.564 153.128 253.364 153.256 253.148C153.385 252.932 153.497 252.676 153.592 252.381C153.69 252.081 153.773 251.718 153.842 251.29C153.91 250.858 153.97 250.337 154.023 249.727L154.319 246.273H159.864V253.75H161.205V257.5H159.864V255H153.41V257.5H152.069ZM154.319 253.75H158.523V247.523H155.569L155.342 249.727C155.247 250.64 155.129 251.437 154.989 252.119C154.849 252.801 154.626 253.345 154.319 253.75ZM162.985 255V246.273H164.326V250.068H165.212L168.349 246.273H170.076L166.553 250.477L170.121 255H168.394L165.531 251.318H164.326V255H162.985ZM174.879 255.182C174.038 255.182 173.312 254.996 172.702 254.625C172.096 254.25 171.629 253.727 171.299 253.057C170.973 252.383 170.81 251.598 170.81 250.705C170.81 249.811 170.973 249.023 171.299 248.341C171.629 247.655 172.087 247.121 172.674 246.739C173.265 246.352 173.954 246.159 174.742 246.159C175.197 246.159 175.646 246.235 176.089 246.386C176.532 246.538 176.935 246.784 177.299 247.125C177.663 247.462 177.952 247.909 178.168 248.466C178.384 249.023 178.492 249.708 178.492 250.523V251.091H171.765V249.932H177.129C177.129 249.439 177.03 249 176.833 248.614C176.64 248.227 176.363 247.922 176.004 247.699C175.647 247.475 175.227 247.364 174.742 247.364C174.208 247.364 173.746 247.496 173.356 247.761C172.969 248.023 172.672 248.364 172.464 248.784C172.255 249.205 172.151 249.655 172.151 250.136V250.909C172.151 251.568 172.265 252.127 172.492 252.585C172.723 253.04 173.043 253.386 173.452 253.625C173.862 253.86 174.337 253.977 174.879 253.977C175.231 253.977 175.549 253.928 175.833 253.83C176.121 253.727 176.369 253.576 176.577 253.375C176.786 253.17 176.947 252.917 177.06 252.614L178.356 252.977C178.219 253.417 177.99 253.803 177.668 254.136C177.346 254.466 176.949 254.723 176.475 254.909C176.002 255.091 175.469 255.182 174.879 255.182Z" fill="black"/>
<path opacity="0.1" d="M26.8636 117V100.818L60.8182 71.0909C63.3636 68.7879 65.5303 66.6818 67.3182 64.7727C69.1061 62.8333 70.4697 60.8939 71.4091 58.9545C72.3485 56.9848 72.8182 54.8485 72.8182 52.5455C72.8182 49.9697 72.2576 47.7727 71.1364 45.9545C70.0152 44.1061 68.4697 42.6818 66.5 41.6818C64.5303 40.6818 62.2727 40.1818 59.7273 40.1818C57.1515 40.1818 54.8939 40.7121 52.9545 41.7727C51.0152 42.803 49.5 44.303 48.4091 46.2727C47.3485 48.2424 46.8182 50.6364 46.8182 53.4545H25.5C25.5 47.1212 26.9242 41.6515 29.7727 37.0455C32.6212 32.4394 36.6212 28.8939 41.7727 26.4091C46.9545 23.8939 52.9697 22.6364 59.8182 22.6364C66.8788 22.6364 73.0152 23.8182 78.2273 26.1818C83.4394 28.5455 87.4697 31.8485 90.3182 36.0909C93.197 40.303 94.6364 45.197 94.6364 50.7727C94.6364 54.3182 93.9242 57.8333 92.5 61.3182C91.0758 64.803 88.5152 68.6515 84.8182 72.8636C81.1515 77.0758 75.9394 82.1212 69.1818 88L58.0455 98.2727V98.8636H95.7727V117H26.8636Z" fill="#5200D9"/>
<path d="M201.438 135.906H187.188C186.715 135.906 186.262 136.094 185.928 136.428C185.594 136.762 185.406 137.215 185.406 137.688V141.25H182.581L178.128 136.797L183.103 131.822C183.437 131.488 183.625 131.035 183.625 130.562C183.625 130.09 183.437 129.637 183.103 129.303L175.978 122.178C175.644 121.844 175.191 121.657 174.719 121.657C174.246 121.657 173.793 121.844 173.459 122.178L165.075 130.562H155.125C154.653 130.563 154.2 130.75 153.866 131.084L152.606 132.344H123.062V135.906H149.044L145.481 139.469H123.062V143.031H141.919L141.397 143.553C141.063 143.887 140.875 144.34 140.875 144.812V154.763L136.053 159.584C135.805 159.833 135.636 160.15 135.567 160.495L133.786 169.401C133.728 169.689 133.743 169.987 133.828 170.268C133.913 170.549 134.067 170.804 134.275 171.012C134.483 171.219 134.739 171.372 135.02 171.456C135.302 171.541 135.6 171.554 135.888 171.496L144.794 169.714C145.138 169.646 145.455 169.476 145.704 169.228L152.777 162.155C153.522 162.463 154.319 162.623 155.125 162.625H165.075L169.897 167.447C170.231 167.781 170.684 167.969 171.156 167.969V178.656H96.3438V75.3438H171.156V118.094H174.719V73.5625C174.719 73.0901 174.531 72.637 174.197 72.303C173.863 71.9689 173.41 71.7812 172.938 71.7812H94.5625C94.0901 71.7812 93.637 71.9689 93.303 72.303C92.9689 72.637 92.7812 73.0901 92.7812 73.5625V180.438C92.7812 180.91 92.9689 181.363 93.303 181.697C93.637 182.031 94.0901 182.219 94.5625 182.219H172.938C173.41 182.219 173.863 182.031 174.197 181.697C174.531 181.363 174.719 180.91 174.719 180.438V167.969H185.406V169.75C185.406 170.222 185.594 170.675 185.928 171.01C186.262 171.344 186.715 171.531 187.188 171.531H201.438C201.91 171.531 202.363 171.344 202.697 171.01C203.031 170.675 203.219 170.222 203.219 169.75V137.688C203.219 137.215 203.031 136.762 202.697 136.428C202.363 136.094 201.91 135.906 201.438 135.906ZM174.719 125.956L179.325 130.562L159.731 150.156H155.125C153.991 150.158 152.88 150.468 151.909 151.054C150.939 151.64 150.147 152.479 149.618 153.482C149.089 154.485 148.843 155.612 148.908 156.744C148.972 157.876 149.344 158.969 149.983 159.905L144.438 165.45L139.831 160.844L174.719 125.956ZM144.438 145.55L155.862 134.125H161.513L144.438 151.2V145.55ZM138.406 164.456L140.825 166.875L137.797 167.481L138.406 164.456ZM171.894 164.406L167.072 159.584C166.738 159.25 166.285 159.063 165.812 159.062H155.125C154.416 159.062 153.737 158.781 153.236 158.28C152.735 157.779 152.453 157.099 152.453 156.391C152.453 155.682 152.735 155.002 153.236 154.501C153.737 154 154.416 153.719 155.125 153.719H171.156V150.156H164.769L175.609 139.316L180.584 144.291C180.918 144.625 181.371 144.812 181.844 144.812H185.406V164.406H171.894ZM199.656 167.969H188.969V139.469H199.656V167.969Z" fill="#5200D9"/>
<path d="M115.938 150.156H101.688C101.215 150.156 100.762 150.344 100.428 150.678C100.094 151.012 99.9062 151.465 99.9062 151.938V166.188C99.9062 166.66 100.094 167.113 100.428 167.447C100.762 167.781 101.215 167.969 101.688 167.969H115.938C116.41 167.969 116.863 167.781 117.197 167.447C117.531 167.113 117.719 166.66 117.719 166.188V154.456L122.541 149.634L120.022 147.116L116.757 150.381C116.507 150.239 116.225 150.162 115.938 150.156ZM114.156 164.406H103.469V153.719H113.419L108.812 158.325L106.509 156.022L103.991 158.541L107.553 162.103C107.887 162.437 108.34 162.625 108.812 162.625C109.285 162.625 109.738 162.437 110.072 162.103L114.156 158.019V164.406ZM120.022 82.9907L116.757 86.2558C116.507 86.114 116.225 86.0368 115.938 86.0313H101.688C101.215 86.0313 100.762 86.219 100.428 86.553C100.094 86.8871 99.9062 87.3401 99.9062 87.8126V102.063C99.9062 102.535 100.094 102.988 100.428 103.322C100.762 103.656 101.215 103.844 101.688 103.844H115.938C116.41 103.844 116.863 103.656 117.197 103.322C117.531 102.988 117.719 102.535 117.719 102.063V90.3313L122.541 85.5094L120.022 82.9907ZM114.156 100.281H103.469V89.5938H113.419L108.812 94.2001L106.509 91.897L103.991 94.4157L107.553 97.9782C107.887 98.3121 108.34 98.4997 108.812 98.4997C109.285 98.4997 109.738 98.3121 110.072 97.9782L114.156 93.8938V100.281ZM120.022 104.366L116.757 107.631C116.507 107.489 116.225 107.412 115.938 107.406H101.688C101.215 107.406 100.762 107.594 100.428 107.928C100.094 108.262 99.9062 108.715 99.9062 109.188V123.438C99.9062 123.91 100.094 124.363 100.428 124.697C100.762 125.031 101.215 125.219 101.688 125.219H115.938C116.41 125.219 116.863 125.031 117.197 124.697C117.531 124.363 117.719 123.91 117.719 123.438V111.706L122.541 106.884L120.022 104.366ZM114.156 121.656H103.469V110.969H113.419L108.812 115.575L106.509 113.272L103.991 115.791L107.553 119.353C107.887 119.687 108.34 119.875 108.812 119.875C109.285 119.875 109.738 119.687 110.072 119.353L114.156 115.269V121.656ZM120.022 125.741L116.757 129.006C116.507 128.864 116.225 128.787 115.938 128.781H101.688C101.215 128.781 100.762 128.969 100.428 129.303C100.094 129.637 99.9062 130.09 99.9062 130.563V144.813C99.9062 145.285 100.094 145.738 100.428 146.072C100.762 146.406 101.215 146.594 101.688 146.594H115.938C116.41 146.594 116.863 146.406 117.197 146.072C117.531 145.738 117.719 145.285 117.719 144.813V133.081L122.541 128.259L120.022 125.741ZM114.156 143.031H103.469V132.344H113.419L108.812 136.95L106.509 134.647L103.991 137.166L107.553 140.728C107.887 141.062 108.34 141.25 108.812 141.25C109.285 141.25 109.738 141.062 110.072 140.728L114.156 136.644V143.031ZM123.062 89.5938H167.594V93.1563H123.062V89.5938ZM123.062 96.7188H160.469V100.281H123.062V96.7188ZM164.031 96.7188H167.594V100.281H164.031V96.7188ZM123.062 110.969H167.594V114.531H123.062V110.969ZM123.062 118.094H160.469V121.656H123.062V118.094ZM164.031 118.094H167.594V121.656H164.031V118.094ZM123.062 153.719H131.969V157.281H123.062V153.719ZM123.062 160.844H131.969V164.406H123.062V160.844Z" fill="#5200D9"/>
</g>
<defs>
<clipPath id="clip0_64_867">
<rect width="295" height="295" rx="5" fill="white"/>
</clipPath>
</defs>
</svg>
