<svg width="295" height="295" viewBox="0 0 295 295" fill="none" xmlns="http://www.w3.org/2000/svg">
<g clip-path="url(#clip0_64_874)">
<rect width="295" height="295" rx="5" fill="#5200D9" fill-opacity="0.1"/>
<path d="M71.0632 225.182C71.0632 226.409 70.8416 227.47 70.3984 228.364C69.9553 229.258 69.3473 229.947 68.5746 230.432C67.8018 230.917 66.9193 231.159 65.9268 231.159C64.9344 231.159 64.0518 230.917 63.2791 230.432C62.5064 229.947 61.8984 229.258 61.4553 228.364C61.0121 227.47 60.7905 226.409 60.7905 225.182C60.7905 223.955 61.0121 222.894 61.4553 222C61.8984 221.106 62.5064 220.417 63.2791 219.932C64.0518 219.447 64.9344 219.205 65.9268 219.205C66.9193 219.205 67.8018 219.447 68.5746 219.932C69.3473 220.417 69.9553 221.106 70.3984 222C70.8416 222.894 71.0632 223.955 71.0632 225.182ZM69.6996 225.182C69.6996 224.174 69.531 223.324 69.1939 222.631C68.8606 221.938 68.4079 221.413 67.8359 221.057C67.2678 220.701 66.6314 220.523 65.9268 220.523C65.2223 220.523 64.584 220.701 64.0121 221.057C63.4439 221.413 62.9912 221.938 62.6541 222.631C62.3208 223.324 62.1541 224.174 62.1541 225.182C62.1541 226.189 62.3208 227.04 62.6541 227.733C62.9912 228.426 63.4439 228.951 64.0121 229.307C64.584 229.663 65.2223 229.841 65.9268 229.841C66.6314 229.841 67.2678 229.663 67.8359 229.307C68.4079 228.951 68.8606 228.426 69.1939 227.733C69.531 227.04 69.6996 226.189 69.6996 225.182ZM73.2507 231V222.273H80.1143V231H78.7734V223.523H74.5916V231H73.2507ZM81.7905 231V229.75H82.1087C82.37 229.75 82.5878 229.699 82.7621 229.597C82.9363 229.491 83.0765 229.307 83.1825 229.045C83.2924 228.78 83.3757 228.413 83.4325 227.943C83.4931 227.47 83.5367 226.867 83.5632 226.136L83.7223 222.273H89.5405V231H88.1996V223.523H84.995L84.8587 226.636C84.8284 227.352 84.764 227.983 84.6655 228.528C84.5708 229.07 84.425 229.525 84.228 229.892C84.0348 230.259 83.7772 230.536 83.4553 230.722C83.1333 230.907 82.7299 231 82.245 231H81.7905ZM94.5689 231.205C94.0159 231.205 93.514 231.1 93.0632 230.892C92.6125 230.68 92.2545 230.375 91.9893 229.977C91.7242 229.576 91.5916 229.091 91.5916 228.523C91.5916 228.023 91.6901 227.617 91.8871 227.307C92.084 226.992 92.3473 226.746 92.6768 226.568C93.0064 226.39 93.37 226.258 93.7678 226.17C94.1693 226.08 94.5727 226.008 94.978 225.955C95.5083 225.886 95.9382 225.835 96.2678 225.801C96.6011 225.763 96.8435 225.701 96.995 225.614C97.1503 225.527 97.228 225.375 97.228 225.159V225.114C97.228 224.553 97.0746 224.117 96.7678 223.807C96.4647 223.496 96.0045 223.341 95.3871 223.341C94.7469 223.341 94.245 223.481 93.8814 223.761C93.5178 224.042 93.2621 224.341 93.1143 224.659L91.8416 224.205C92.0689 223.674 92.3719 223.261 92.7507 222.966C93.1333 222.667 93.55 222.458 94.0007 222.341C94.4553 222.22 94.9022 222.159 95.3416 222.159C95.6219 222.159 95.9439 222.193 96.3075 222.261C96.675 222.326 97.0291 222.46 97.37 222.665C97.7147 222.869 98.0007 223.178 98.228 223.591C98.4553 224.004 98.5689 224.557 98.5689 225.25V231H97.228V229.818H97.1598C97.0689 230.008 96.9174 230.21 96.7053 230.426C96.4931 230.642 96.2109 230.826 95.8587 230.977C95.5064 231.129 95.0765 231.205 94.5689 231.205ZM94.7734 230C95.3037 230 95.7507 229.896 96.1143 229.688C96.4818 229.479 96.7583 229.21 96.9439 228.881C97.1333 228.551 97.228 228.205 97.228 227.841V226.614C97.1712 226.682 97.0462 226.744 96.853 226.801C96.6636 226.854 96.4439 226.902 96.1939 226.943C95.9477 226.981 95.7071 227.015 95.4723 227.045C95.2412 227.072 95.0537 227.095 94.9098 227.114C94.5613 227.159 94.2356 227.233 93.9325 227.335C93.6333 227.434 93.3909 227.583 93.2053 227.784C93.0234 227.981 92.9325 228.25 92.9325 228.591C92.9325 229.057 93.1049 229.409 93.4496 229.648C93.7981 229.883 94.2393 230 94.7734 230ZM99.8288 223.523V222.273H106.92V223.523H104.056V231H102.715V223.523H99.8288ZM110.217 229.023L114.421 222.273H115.967V231H114.626V224.25L110.444 231H108.876V222.273H110.217V229.023ZM117.235 223.523V222.273H124.326V223.523H121.462V231H120.121V223.523H117.235ZM129.488 231.182C128.647 231.182 127.922 230.996 127.312 230.625C126.706 230.25 126.238 229.727 125.908 229.057C125.583 228.383 125.42 227.598 125.42 226.705C125.42 225.811 125.583 225.023 125.908 224.341C126.238 223.655 126.696 223.121 127.283 222.739C127.874 222.352 128.564 222.159 129.352 222.159C129.806 222.159 130.255 222.235 130.698 222.386C131.141 222.538 131.545 222.784 131.908 223.125C132.272 223.462 132.562 223.909 132.778 224.466C132.994 225.023 133.102 225.708 133.102 226.523V227.091H126.374V225.932H131.738C131.738 225.439 131.639 225 131.442 224.614C131.249 224.227 130.973 223.922 130.613 223.699C130.257 223.475 129.836 223.364 129.352 223.364C128.817 223.364 128.355 223.496 127.965 223.761C127.579 224.023 127.281 224.364 127.073 224.784C126.865 225.205 126.761 225.655 126.761 226.136V226.909C126.761 227.568 126.874 228.127 127.102 228.585C127.333 229.04 127.653 229.386 128.062 229.625C128.471 229.86 128.946 229.977 129.488 229.977C129.84 229.977 130.158 229.928 130.442 229.83C130.73 229.727 130.978 229.576 131.187 229.375C131.395 229.17 131.556 228.917 131.67 228.614L132.965 228.977C132.829 229.417 132.6 229.803 132.278 230.136C131.956 230.466 131.558 230.723 131.085 230.909C130.611 231.091 130.079 231.182 129.488 231.182ZM139.641 231V222.273H146.505V231H145.164V223.523H140.982V231H139.641ZM152.499 231.182C151.711 231.182 151.02 230.994 150.425 230.619C149.835 230.244 149.372 229.72 149.039 229.045C148.71 228.371 148.545 227.583 148.545 226.682C148.545 225.773 148.71 224.979 149.039 224.301C149.372 223.623 149.835 223.097 150.425 222.722C151.02 222.347 151.711 222.159 152.499 222.159C153.287 222.159 153.977 222.347 154.567 222.722C155.162 223.097 155.624 223.623 155.954 224.301C156.287 224.979 156.454 225.773 156.454 226.682C156.454 227.583 156.287 228.371 155.954 229.045C155.624 229.72 155.162 230.244 154.567 230.619C153.977 230.994 153.287 231.182 152.499 231.182ZM152.499 229.977C153.098 229.977 153.59 229.824 153.977 229.517C154.363 229.21 154.649 228.807 154.835 228.307C155.02 227.807 155.113 227.265 155.113 226.682C155.113 226.098 155.02 225.555 154.835 225.051C154.649 224.547 154.363 224.14 153.977 223.83C153.59 223.519 153.098 223.364 152.499 223.364C151.901 223.364 151.408 223.519 151.022 223.83C150.636 224.14 150.35 224.547 150.164 225.051C149.978 225.555 149.886 226.098 149.886 226.682C149.886 227.265 149.978 227.807 150.164 228.307C150.35 228.807 150.636 229.21 151.022 229.517C151.408 229.824 151.901 229.977 152.499 229.977ZM157.728 231V229.75H158.046C158.308 229.75 158.525 229.699 158.7 229.597C158.874 229.491 159.014 229.307 159.12 229.045C159.23 228.78 159.313 228.413 159.37 227.943C159.431 227.47 159.474 226.867 159.501 226.136L159.66 222.273H165.478V231H164.137V223.523H160.933L160.796 226.636C160.766 227.352 160.701 227.983 160.603 228.528C160.508 229.07 160.362 229.525 160.165 229.892C159.972 230.259 159.715 230.536 159.393 230.722C159.071 230.907 158.667 231 158.183 231H157.728ZM169.279 229.023L173.484 222.273H175.029V231H173.688V224.25L169.506 231H167.938V222.273H169.279V229.023ZM181.031 231.182C180.212 231.182 179.508 230.989 178.917 230.602C178.326 230.216 177.871 229.684 177.553 229.006C177.235 228.328 177.076 227.553 177.076 226.682C177.076 225.795 177.239 225.013 177.565 224.335C177.894 223.653 178.353 223.121 178.94 222.739C179.531 222.352 180.22 222.159 181.008 222.159C181.621 222.159 182.174 222.273 182.667 222.5C183.159 222.727 183.563 223.045 183.877 223.455C184.192 223.864 184.387 224.341 184.462 224.886H183.121C183.019 224.489 182.792 224.136 182.44 223.83C182.091 223.519 181.621 223.364 181.031 223.364C180.508 223.364 180.049 223.5 179.656 223.773C179.265 224.042 178.96 224.422 178.741 224.915C178.525 225.403 178.417 225.977 178.417 226.636C178.417 227.311 178.523 227.898 178.735 228.398C178.951 228.898 179.254 229.286 179.644 229.562C180.038 229.839 180.5 229.977 181.031 229.977C181.379 229.977 181.695 229.917 181.979 229.795C182.263 229.674 182.504 229.5 182.701 229.273C182.898 229.045 183.038 228.773 183.121 228.455H184.462C184.387 228.97 184.199 229.434 183.9 229.847C183.604 230.256 183.212 230.581 182.724 230.824C182.239 231.062 181.674 231.182 181.031 231.182ZM197.65 222.273V231H196.309V222.273H197.65ZM197.127 226.432V227.682C196.824 227.795 196.523 227.896 196.224 227.983C195.924 228.066 195.61 228.133 195.281 228.182C194.951 228.227 194.589 228.25 194.195 228.25C193.207 228.25 192.413 227.983 191.815 227.449C191.22 226.915 190.923 226.114 190.923 225.045V222.25H192.263V225.045C192.263 225.492 192.349 225.86 192.519 226.148C192.69 226.436 192.921 226.65 193.212 226.79C193.504 226.93 193.832 227 194.195 227C194.763 227 195.277 226.949 195.735 226.847C196.197 226.741 196.661 226.602 197.127 226.432ZM203.769 231.182C202.928 231.182 202.203 230.996 201.593 230.625C200.987 230.25 200.519 229.727 200.19 229.057C199.864 228.383 199.701 227.598 199.701 226.705C199.701 225.811 199.864 225.023 200.19 224.341C200.519 223.655 200.978 223.121 201.565 222.739C202.156 222.352 202.845 222.159 203.633 222.159C204.087 222.159 204.536 222.235 204.979 222.386C205.423 222.538 205.826 222.784 206.19 223.125C206.553 223.462 206.843 223.909 207.059 224.466C207.275 225.023 207.383 225.708 207.383 226.523V227.091H200.656V225.932H206.019C206.019 225.439 205.921 225 205.724 224.614C205.531 224.227 205.254 223.922 204.894 223.699C204.538 223.475 204.118 223.364 203.633 223.364C203.099 223.364 202.637 223.496 202.246 223.761C201.86 224.023 201.563 224.364 201.354 224.784C201.146 225.205 201.042 225.655 201.042 226.136V226.909C201.042 227.568 201.156 228.127 201.383 228.585C201.614 229.04 201.934 229.386 202.343 229.625C202.752 229.86 203.228 229.977 203.769 229.977C204.121 229.977 204.44 229.928 204.724 229.83C205.012 229.727 205.26 229.576 205.468 229.375C205.676 229.17 205.837 228.917 205.951 228.614L207.246 228.977C207.11 229.417 206.881 229.803 206.559 230.136C206.237 230.466 205.839 230.723 205.366 230.909C204.892 231.091 204.36 231.182 203.769 231.182ZM209.423 234.273V222.273H210.718V223.659H210.877C210.976 223.508 211.112 223.314 211.286 223.08C211.464 222.841 211.718 222.629 212.048 222.443C212.381 222.254 212.832 222.159 213.4 222.159C214.135 222.159 214.782 222.343 215.343 222.71C215.904 223.078 216.341 223.598 216.656 224.273C216.97 224.947 217.127 225.742 217.127 226.659C217.127 227.583 216.97 228.384 216.656 229.062C216.341 229.737 215.906 230.259 215.349 230.631C214.792 230.998 214.15 231.182 213.423 231.182C212.862 231.182 212.413 231.089 212.076 230.903C211.739 230.714 211.479 230.5 211.298 230.261C211.116 230.019 210.976 229.818 210.877 229.659H210.763V234.273H209.423ZM210.741 226.636C210.741 227.295 210.837 227.877 211.031 228.381C211.224 228.881 211.506 229.273 211.877 229.557C212.248 229.837 212.703 229.977 213.241 229.977C213.801 229.977 214.269 229.83 214.644 229.534C215.023 229.235 215.307 228.833 215.496 228.33C215.69 227.822 215.786 227.258 215.786 226.636C215.786 226.023 215.692 225.47 215.502 224.977C215.317 224.481 215.034 224.089 214.656 223.801C214.281 223.509 213.809 223.364 213.241 223.364C212.695 223.364 212.237 223.502 211.866 223.778C211.495 224.051 211.214 224.434 211.025 224.926C210.835 225.415 210.741 225.985 210.741 226.636ZM222.832 231.182C221.991 231.182 221.265 230.996 220.656 230.625C220.049 230.25 219.582 229.727 219.252 229.057C218.926 228.383 218.763 227.598 218.763 226.705C218.763 225.811 218.926 225.023 219.252 224.341C219.582 223.655 220.04 223.121 220.627 222.739C221.218 222.352 221.907 222.159 222.695 222.159C223.15 222.159 223.599 222.235 224.042 222.386C224.485 222.538 224.888 222.784 225.252 223.125C225.616 223.462 225.906 223.909 226.121 224.466C226.337 225.023 226.445 225.708 226.445 226.523V227.091H219.718V225.932H225.082C225.082 225.439 224.983 225 224.786 224.614C224.593 224.227 224.317 223.922 223.957 223.699C223.601 223.475 223.18 223.364 222.695 223.364C222.161 223.364 221.699 223.496 221.309 223.761C220.923 224.023 220.625 224.364 220.417 224.784C220.209 225.205 220.104 225.655 220.104 226.136V226.909C220.104 227.568 220.218 228.127 220.445 228.585C220.676 229.04 220.996 229.386 221.406 229.625C221.815 229.86 222.29 229.977 222.832 229.977C223.184 229.977 223.502 229.928 223.786 229.83C224.074 229.727 224.322 229.576 224.531 229.375C224.739 229.17 224.9 228.917 225.013 228.614L226.309 228.977C226.173 229.417 225.943 229.803 225.621 230.136C225.299 230.466 224.902 230.723 224.428 230.909C223.955 231.091 223.423 231.182 222.832 231.182ZM227.94 228.773H229.371C229.402 229.167 229.58 229.466 229.906 229.67C230.235 229.875 230.663 229.977 231.19 229.977C231.728 229.977 232.188 229.867 232.57 229.648C232.953 229.424 233.144 229.064 233.144 228.568C233.144 228.277 233.072 228.023 232.928 227.807C232.784 227.587 232.582 227.417 232.32 227.295C232.059 227.174 231.75 227.114 231.394 227.114H229.894V225.909H231.394C231.928 225.909 232.322 225.788 232.576 225.545C232.834 225.303 232.962 225 232.962 224.636C232.962 224.246 232.824 223.934 232.548 223.699C232.271 223.46 231.879 223.341 231.371 223.341C230.86 223.341 230.434 223.456 230.093 223.688C229.752 223.915 229.572 224.208 229.553 224.568H228.144C228.159 224.098 228.303 223.684 228.576 223.324C228.849 222.96 229.22 222.676 229.69 222.472C230.159 222.263 230.697 222.159 231.303 222.159C231.917 222.159 232.449 222.267 232.9 222.483C233.354 222.695 233.705 222.985 233.951 223.352C234.201 223.716 234.326 224.129 234.326 224.591C234.326 225.083 234.188 225.481 233.911 225.784C233.635 226.087 233.288 226.303 232.871 226.432V226.523C233.201 226.545 233.487 226.652 233.729 226.841C233.976 227.027 234.167 227.271 234.303 227.574C234.44 227.873 234.508 228.205 234.508 228.568C234.508 229.098 234.366 229.561 234.082 229.955C233.798 230.345 233.407 230.648 232.911 230.864C232.415 231.076 231.849 231.182 231.212 231.182C230.595 231.182 230.042 231.081 229.553 230.881C229.065 230.676 228.676 230.394 228.388 230.034C228.104 229.67 227.955 229.25 227.94 228.773ZM113.974 253.023L118.179 246.273H119.724V255H118.384V248.25L114.202 255H112.634V246.273H113.974V253.023ZM128.021 250.023V251.273H123.203V250.023H128.021ZM123.521 246.273V255H122.18V246.273H123.521ZM129.044 246.273V255H127.703V246.273H129.044ZM130.305 247.523V246.273H137.396V247.523H134.533V255H133.192V247.523H130.305ZM142.558 255.182C141.717 255.182 140.992 254.996 140.382 254.625C139.776 254.25 139.308 253.727 138.979 253.057C138.653 252.383 138.49 251.598 138.49 250.705C138.49 249.811 138.653 249.023 138.979 248.341C139.308 247.655 139.767 247.121 140.354 246.739C140.945 246.352 141.634 246.159 142.422 246.159C142.876 246.159 143.325 246.235 143.768 246.386C144.212 246.538 144.615 246.784 144.979 247.125C145.342 247.462 145.632 247.909 145.848 248.466C146.064 249.023 146.172 249.708 146.172 250.523V251.091H139.445V249.932H144.808C144.808 249.439 144.71 249 144.513 248.614C144.32 248.227 144.043 247.922 143.683 247.699C143.327 247.475 142.907 247.364 142.422 247.364C141.888 247.364 141.426 247.496 141.036 247.761C140.649 248.023 140.352 248.364 140.143 248.784C139.935 249.205 139.831 249.655 139.831 250.136V250.909C139.831 251.568 139.945 252.127 140.172 252.585C140.403 253.04 140.723 253.386 141.132 253.625C141.541 253.86 142.017 253.977 142.558 253.977C142.911 253.977 143.229 253.928 143.513 253.83C143.801 253.727 144.049 253.576 144.257 253.375C144.465 253.17 144.626 252.917 144.74 252.614L146.036 252.977C145.899 253.417 145.67 253.803 145.348 254.136C145.026 254.466 144.628 254.723 144.155 254.909C143.681 255.091 143.149 255.182 142.558 255.182ZM148.212 258.273V246.273H149.507V247.659H149.666C149.765 247.508 149.901 247.314 150.075 247.08C150.253 246.841 150.507 246.629 150.837 246.443C151.17 246.254 151.621 246.159 152.189 246.159C152.924 246.159 153.571 246.343 154.132 246.71C154.693 247.078 155.13 247.598 155.445 248.273C155.759 248.947 155.916 249.742 155.916 250.659C155.916 251.583 155.759 252.384 155.445 253.062C155.13 253.737 154.695 254.259 154.138 254.631C153.581 254.998 152.939 255.182 152.212 255.182C151.651 255.182 151.202 255.089 150.865 254.903C150.528 254.714 150.268 254.5 150.087 254.261C149.905 254.019 149.765 253.818 149.666 253.659H149.553V258.273H148.212ZM149.53 250.636C149.53 251.295 149.626 251.877 149.82 252.381C150.013 252.881 150.295 253.273 150.666 253.557C151.037 253.837 151.492 253.977 152.03 253.977C152.59 253.977 153.058 253.83 153.433 253.534C153.812 253.235 154.096 252.833 154.286 252.33C154.479 251.822 154.575 251.258 154.575 250.636C154.575 250.023 154.481 249.47 154.291 248.977C154.106 248.481 153.823 248.089 153.445 247.801C153.07 247.509 152.598 247.364 152.03 247.364C151.484 247.364 151.026 247.502 150.655 247.778C150.284 248.051 150.003 248.434 149.814 248.926C149.625 249.415 149.53 249.985 149.53 250.636ZM163.803 250.023V251.273H158.984V250.023H163.803ZM159.303 246.273V255H157.962V246.273H159.303ZM164.825 246.273V255H163.484V246.273H164.825ZM170.933 255.182C170.092 255.182 169.367 254.996 168.757 254.625C168.151 254.25 167.683 253.727 167.354 253.057C167.028 252.383 166.865 251.598 166.865 250.705C166.865 249.811 167.028 249.023 167.354 248.341C167.683 247.655 168.142 247.121 168.729 246.739C169.32 246.352 170.009 246.159 170.797 246.159C171.251 246.159 171.7 246.235 172.143 246.386C172.587 246.538 172.99 246.784 173.354 247.125C173.717 247.462 174.007 247.909 174.223 248.466C174.439 249.023 174.547 249.708 174.547 250.523V251.091H167.82V249.932H173.183C173.183 249.439 173.085 249 172.888 248.614C172.695 248.227 172.418 247.922 172.058 247.699C171.702 247.475 171.282 247.364 170.797 247.364C170.263 247.364 169.801 247.496 169.411 247.761C169.024 248.023 168.727 248.364 168.518 248.784C168.31 249.205 168.206 249.655 168.206 250.136V250.909C168.206 251.568 168.32 252.127 168.547 252.585C168.778 253.04 169.098 253.386 169.507 253.625C169.916 253.86 170.392 253.977 170.933 253.977C171.286 253.977 171.604 253.928 171.888 253.83C172.176 253.727 172.424 253.576 172.632 253.375C172.84 253.17 173.001 252.917 173.115 252.614L174.411 252.977C174.274 253.417 174.045 253.803 173.723 254.136C173.401 254.466 173.003 254.723 172.53 254.909C172.056 255.091 171.524 255.182 170.933 255.182ZM175.774 247.523V246.273H182.865V247.523H180.001V255H178.661V247.523H175.774Z" fill="black"/>
<path opacity="0.1" d="M62.2727 118.273C55.1818 118.273 48.8939 117.061 43.4091 114.636C37.9545 112.182 33.6515 108.803 30.5 104.5C27.3485 100.197 25.7424 95.2424 25.6818 89.6364H48.3182C48.4091 91.6667 49.0606 93.4697 50.2727 95.0455C51.4849 96.5909 53.1364 97.803 55.2273 98.6818C57.3182 99.5606 59.697 100 62.3636 100C65.0303 100 67.3788 99.5303 69.4091 98.5909C71.4697 97.6212 73.0758 96.303 74.2273 94.6364C75.3788 92.9394 75.9394 91 75.9091 88.8182C75.9394 86.6364 75.3182 84.697 74.0455 83C72.7727 81.303 70.9697 79.9848 68.6364 79.0455C66.3333 78.1061 63.6061 77.6364 60.4545 77.6364H51.4091V61.6364H60.4545C63.2121 61.6364 65.6364 61.1818 67.7273 60.2727C69.8485 59.3636 71.5 58.0909 72.6818 56.4545C73.8636 54.7879 74.4394 52.8788 74.4091 50.7273C74.4394 48.6364 73.9394 46.803 72.9091 45.2273C71.9091 43.6212 70.5 42.3788 68.6818 41.5C66.8939 40.6212 64.8182 40.1818 62.4545 40.1818C59.9697 40.1818 57.7121 40.6212 55.6818 41.5C53.6818 42.3788 52.0909 43.6212 50.9091 45.2273C49.7273 46.8333 49.1061 48.697 49.0455 50.8182H27.5455C27.6061 45.2727 29.1515 40.3939 32.1818 36.1818C35.2121 31.9394 39.3333 28.6212 44.5455 26.2273C49.7879 23.8333 55.7576 22.6364 62.4545 22.6364C69.1212 22.6364 74.9849 23.803 80.0455 26.1364C85.1061 28.4697 89.0455 31.6515 91.8636 35.6818C94.6818 39.6818 96.0909 44.2121 96.0909 49.2727C96.1212 54.5151 94.4091 58.8333 90.9545 62.2273C87.5303 65.6212 83.1212 67.7121 77.7273 68.5V69.2273C84.9394 70.0758 90.3788 72.4091 94.0455 76.2273C97.7424 80.0455 99.5758 84.8182 99.5455 90.5455C99.5455 95.9394 97.9545 100.727 94.7727 104.909C91.6212 109.061 87.2273 112.333 81.5909 114.727C75.9849 117.091 69.5455 118.273 62.2727 118.273Z" fill="#5200D9"/>
<g clip-path="url(#clip1_64_874)">
<path d="M204.763 136.637H200.974V121.481C200.968 116.253 196.731 112.015 191.502 112.008H186.127L191.243 103.145C191.997 101.838 192.201 100.285 191.811 98.8284C191.617 98.107 191.283 97.431 190.828 96.8388C190.373 96.2466 189.805 95.7499 189.158 95.3771L146.488 70.7484C143.769 69.199 140.31 70.1287 138.734 72.8324L116.124 112.008H100.565C95.3358 112.015 91.0992 116.253 91.0925 121.481V174.527C91.0992 179.757 95.3358 183.993 100.565 184H191.502C196.731 183.993 200.968 179.757 200.974 174.527V159.371H204.763V136.637ZM187.967 101.249L177.374 119.587H143.117L163.212 84.7716L187.273 98.6621C187.703 98.918 188.016 99.3314 188.145 99.8144C188.275 100.297 188.211 100.812 187.967 101.249ZM129.991 119.587L153.376 79.0935L159.931 82.8825L138.745 119.587H129.991ZM142.029 74.7274C142.28 74.2935 142.693 73.9769 143.178 73.8472C143.662 73.7175 144.178 73.7852 144.612 74.0354L150.093 77.1992L125.616 119.587H116.123L142.029 74.7274ZM197.185 174.528C197.185 177.667 194.64 180.211 191.502 180.211H100.565C97.4263 180.211 94.8815 177.667 94.8815 174.528V121.482C94.8815 118.343 97.4263 115.798 100.565 115.798H113.937L111.743 119.587H102.46V123.376H189.607V119.587H181.749L183.938 115.798H191.502C194.64 115.798 197.185 118.343 197.185 121.482V136.638H176.345C171.116 136.644 166.88 140.882 166.873 146.11V149.899C166.88 155.128 171.116 159.365 176.345 159.372H197.185V174.528ZM200.974 155.583H176.345C173.207 155.583 170.662 153.038 170.662 149.899V146.11C170.662 142.971 173.207 140.427 176.345 140.427H200.974V155.583Z" fill="#5200D9"/>
<path d="M172.556 148.004C172.556 151.143 175.101 153.688 178.24 153.688C181.379 153.688 183.923 151.143 183.923 148.004C183.923 144.865 181.379 142.321 178.24 142.321C175.101 142.321 172.556 144.866 172.556 148.004ZM178.24 146.11C178.742 146.11 179.224 146.309 179.58 146.664C179.935 147.02 180.135 147.502 180.135 148.004C180.135 148.507 179.935 148.989 179.58 149.344C179.224 149.699 178.742 149.899 178.24 149.899C177.737 149.899 177.256 149.699 176.9 149.344C176.545 148.989 176.345 148.507 176.345 148.004C176.345 147.502 176.545 147.02 176.9 146.665C177.256 146.309 177.737 146.11 178.24 146.11Z" fill="#5200D9"/>
</g>
</g>
<defs>
<clipPath id="clip0_64_874">
<rect width="295" height="295" rx="5" fill="white"/>
</clipPath>
<clipPath id="clip1_64_874">
<rect width="114" height="114" fill="white" transform="translate(91 70)"/>
</clipPath>
</defs>
</svg>
